<?xml version="1.0" encoding="utf-8" standalone="no"?>
<!DOCTYPE svg PUBLIC "-//W3C//DTD SVG 1.1//EN"
  "http://www.w3.org/Graphics/SVG/1.1/DTD/svg11.dtd">
<svg xmlns:xlink="http://www.w3.org/1999/xlink" width="489.794229pt" height="295.2pt" viewBox="0 0 489.794229 295.2" xmlns="http://www.w3.org/2000/svg" version="1.1">
 <metadata>
  <rdf:RDF xmlns:dc="http://purl.org/dc/elements/1.1/" xmlns:cc="http://creativecommons.org/ns#" xmlns:rdf="http://www.w3.org/1999/02/22-rdf-syntax-ns#">
   <cc:Work>
    <dc:type rdf:resource="http://purl.org/dc/dcmitype/StillImage"/>
    <dc:date>2026-07-12T13:09:07.314307</dc:date>
    <dc:format>image/svg+xml</dc:format>
    <dc:creator>
     <cc:Agent>
      <dc:title>Matplotlib v3.11.0, https://matplotlib.org/</dc:title>
     </cc:Agent>
    </dc:creator>
   </cc:Work>
  </rdf:RDF>
 </metadata>
 <defs>
  <style type="text/css">*{stroke-linejoin: round; stroke-linecap: butt}</style>
 </defs>
 <g id="figure_1">
  <g id="patch_1">
   <path d="M 0 295.2 
L 489.794229 295.2 
L 489.794229 0 
L 0 0 
z
" style="fill: #fcfcfb"/>
  </g>
  <g id="axes_1">
   <g id="patch_2">
    <path d="M 47.362031 254.865 
L 471.119844 254.865 
L 471.119844 24.9 
L 47.362031 24.9 
z
" style="fill: #fcfcfb"/>
   </g>
   <g id="matplotlib.axis_1">
    <g id="xtick_1">
     <g id="line2d_1">
      <path d="M 47.362031 254.865 
L 47.362031 24.9 
" clip-path="url(#p762fdc157f)" style="fill: none; stroke: #e1e0d9; stroke-width: 0.8; stroke-linecap: square"/>
     </g>
     <g id="line2d_2">
      <defs>
       <path id="me01cf2ad75" d="M 0 0 
L 0 3.5 
" style="stroke: #898781; stroke-width: 0.8"/>
      </defs>
      <g>
       <use xlink:href="#me01cf2ad75" x="47.362031" y="254.865" style="fill: #898781; stroke: #898781; stroke-width: 0.8"/>
      </g>
     </g>
     <g id="text_1">
      <!-- 0 -->
      <g style="fill: #898781" transform="translate(44.860312 270.433) scale(0.09 -0.09)">
       <defs>
        <path id="HelveticaNeue-17" d="M 845 2234 
Q 845 2400 848 2601 
Q 851 2803 880 3004 
Q 909 3206 963 3398 
Q 1018 3590 1123 3734 
Q 1229 3878 1389 3968 
Q 1549 4058 1779 4058 
Q 2010 4058 2170 3968 
Q 2330 3878 2435 3734 
Q 2541 3590 2595 3398 
Q 2650 3206 2678 3004 
Q 2707 2803 2710 2601 
Q 2714 2400 2714 2234 
Q 2714 1978 2698 1661 
Q 2682 1344 2595 1065 
Q 2509 787 2317 595 
Q 2125 403 1779 403 
Q 1434 403 1242 595 
Q 1050 787 963 1065 
Q 877 1344 861 1661 
Q 845 1978 845 2234 
z
M 269 2227 
Q 269 1978 281 1709 
Q 294 1440 345 1184 
Q 397 928 493 701 
Q 589 474 755 301 
Q 922 128 1174 29 
Q 1427 -70 1779 -70 
Q 2138 -70 2387 29 
Q 2637 128 2803 301 
Q 2970 474 3066 701 
Q 3162 928 3213 1184 
Q 3264 1440 3277 1709 
Q 3290 1978 3290 2227 
Q 3290 2477 3277 2745 
Q 3264 3014 3213 3270 
Q 3162 3526 3066 3756 
Q 2970 3987 2803 4160 
Q 2637 4333 2384 4435 
Q 2131 4538 1779 4538 
Q 1427 4538 1174 4435 
Q 922 4333 755 4160 
Q 589 3987 493 3756 
Q 397 3526 345 3270 
Q 294 3014 281 2745 
Q 269 2477 269 2227 
z
" transform="scale(0.015625)"/>
       </defs>
       <use xlink:href="#HelveticaNeue-17"/>
      </g>
     </g>
    </g>
    <g id="xtick_2">
     <g id="line2d_3">
      <path d="M 108.669585 254.865 
L 108.669585 24.9 
" clip-path="url(#p762fdc157f)" style="fill: none; stroke: #e1e0d9; stroke-width: 0.8; stroke-linecap: square"/>
     </g>
     <g id="line2d_4">
      <g>
       <use xlink:href="#me01cf2ad75" x="108.669585" y="254.865" style="fill: #898781; stroke: #898781; stroke-width: 0.8"/>
      </g>
     </g>
     <g id="text_2">
      <!-- 5 -->
      <g style="fill: #898781" transform="translate(106.167866 270.433) scale(0.09 -0.09)">
       <defs>
        <path id="HelveticaNeue-1c" d="M 3008 3981 
L 3008 4461 
L 768 4461 
L 346 2106 
L 813 2080 
Q 973 2272 1181 2390 
Q 1389 2509 1658 2509 
Q 1888 2509 2077 2432 
Q 2266 2355 2400 2217 
Q 2534 2080 2608 1891 
Q 2682 1702 2682 1478 
Q 2682 1210 2605 1008 
Q 2528 806 2397 672 
Q 2266 538 2090 470 
Q 1914 403 1722 403 
Q 1517 403 1347 464 
Q 1178 525 1053 637 
Q 928 749 854 899 
Q 781 1050 768 1222 
L 224 1222 
Q 230 915 345 672 
Q 461 429 659 265 
Q 858 102 1117 16 
Q 1376 -70 1670 -70 
Q 2067 -70 2364 54 
Q 2662 179 2860 390 
Q 3059 602 3158 874 
Q 3258 1146 3258 1434 
Q 3258 1824 3142 2115 
Q 3027 2406 2828 2601 
Q 2630 2797 2361 2893 
Q 2093 2989 1792 2989 
Q 1562 2989 1328 2909 
Q 1094 2829 947 2662 
L 934 2675 
L 1178 3981 
L 3008 3981 
z
" transform="scale(0.015625)"/>
       </defs>
       <use xlink:href="#HelveticaNeue-1c"/>
      </g>
     </g>
    </g>
    <g id="xtick_3">
     <g id="line2d_5">
      <path d="M 169.977139 254.865 
L 169.977139 24.9 
" clip-path="url(#p762fdc157f)" style="fill: none; stroke: #e1e0d9; stroke-width: 0.8; stroke-linecap: square"/>
     </g>
     <g id="line2d_6">
      <g>
       <use xlink:href="#me01cf2ad75" x="169.977139" y="254.865" style="fill: #898781; stroke: #898781; stroke-width: 0.8"/>
      </g>
     </g>
     <g id="text_3">
      <!-- 10 -->
      <g style="fill: #898781" transform="translate(164.973702 270.433) scale(0.09 -0.09)">
       <defs>
        <path id="HelveticaNeue-18" d="M 2278 0 
L 2278 4538 
L 1862 4538 
Q 1818 4282 1696 4115 
Q 1574 3949 1398 3853 
Q 1222 3757 1004 3721 
Q 787 3686 557 3686 
L 557 3251 
L 1734 3251 
L 1734 0 
L 2278 0 
z
" transform="scale(0.015625)"/>
       </defs>
       <use xlink:href="#HelveticaNeue-18"/>
       <use xlink:href="#HelveticaNeue-17" transform="translate(55.59375 0)"/>
      </g>
     </g>
    </g>
    <g id="xtick_4">
     <g id="line2d_7">
      <path d="M 231.284693 254.865 
L 231.284693 24.9 
" clip-path="url(#p762fdc157f)" style="fill: none; stroke: #e1e0d9; stroke-width: 0.8; stroke-linecap: square"/>
     </g>
     <g id="line2d_8">
      <g>
       <use xlink:href="#me01cf2ad75" x="231.284693" y="254.865" style="fill: #898781; stroke: #898781; stroke-width: 0.8"/>
      </g>
     </g>
     <g id="text_4">
      <!-- 15 -->
      <g style="fill: #898781" transform="translate(226.281255 270.433) scale(0.09 -0.09)">
       <use xlink:href="#HelveticaNeue-18"/>
       <use xlink:href="#HelveticaNeue-1c" transform="translate(55.59375 0)"/>
      </g>
     </g>
    </g>
    <g id="xtick_5">
     <g id="line2d_9">
      <path d="M 292.592247 254.865 
L 292.592247 24.9 
" clip-path="url(#p762fdc157f)" style="fill: none; stroke: #e1e0d9; stroke-width: 0.8; stroke-linecap: square"/>
     </g>
     <g id="line2d_10">
      <g>
       <use xlink:href="#me01cf2ad75" x="292.592247" y="254.865" style="fill: #898781; stroke: #898781; stroke-width: 0.8"/>
      </g>
     </g>
     <g id="text_5">
      <!-- 20 -->
      <g style="fill: #898781" transform="translate(287.588809 270.433) scale(0.09 -0.09)">
       <defs>
        <path id="HelveticaNeue-19" d="M 282 2931 
L 826 2931 
Q 819 3136 867 3337 
Q 915 3539 1024 3699 
Q 1133 3859 1302 3958 
Q 1472 4058 1709 4058 
Q 1888 4058 2048 4000 
Q 2208 3942 2326 3833 
Q 2445 3725 2515 3574 
Q 2586 3424 2586 3238 
Q 2586 3002 2512 2822 
Q 2438 2643 2294 2489 
Q 2150 2336 1932 2185 
Q 1715 2035 1427 1856 
Q 1190 1715 972 1555 
Q 755 1395 582 1184 
Q 410 973 298 688 
Q 186 403 154 0 
L 3117 0 
L 3117 480 
L 787 480 
Q 826 691 950 854 
Q 1075 1018 1251 1158 
Q 1427 1299 1638 1424 
Q 1850 1549 2061 1677 
Q 2272 1811 2470 1958 
Q 2669 2106 2822 2288 
Q 2976 2470 3069 2700 
Q 3162 2931 3162 3232 
Q 3162 3552 3050 3795 
Q 2938 4038 2746 4201 
Q 2554 4365 2294 4451 
Q 2035 4538 1741 4538 
Q 1382 4538 1100 4416 
Q 819 4294 630 4080 
Q 442 3866 352 3571 
Q 262 3277 282 2931 
z
" transform="scale(0.015625)"/>
       </defs>
       <use xlink:href="#HelveticaNeue-19"/>
       <use xlink:href="#HelveticaNeue-17" transform="translate(55.59375 0)"/>
      </g>
     </g>
    </g>
    <g id="xtick_6">
     <g id="line2d_11">
      <path d="M 353.899801 254.865 
L 353.899801 24.9 
" clip-path="url(#p762fdc157f)" style="fill: none; stroke: #e1e0d9; stroke-width: 0.8; stroke-linecap: square"/>
     </g>
     <g id="line2d_12">
      <g>
       <use xlink:href="#me01cf2ad75" x="353.899801" y="254.865" style="fill: #898781; stroke: #898781; stroke-width: 0.8"/>
      </g>
     </g>
     <g id="text_6">
      <!-- 25 -->
      <g style="fill: #898781" transform="translate(348.896363 270.433) scale(0.09 -0.09)">
       <use xlink:href="#HelveticaNeue-19"/>
       <use xlink:href="#HelveticaNeue-1c" transform="translate(55.59375 0)"/>
      </g>
     </g>
    </g>
    <g id="xtick_7">
     <g id="line2d_13">
      <path d="M 415.207355 254.865 
L 415.207355 24.9 
" clip-path="url(#p762fdc157f)" style="fill: none; stroke: #e1e0d9; stroke-width: 0.8; stroke-linecap: square"/>
     </g>
     <g id="line2d_14">
      <g>
       <use xlink:href="#me01cf2ad75" x="415.207355" y="254.865" style="fill: #898781; stroke: #898781; stroke-width: 0.8"/>
      </g>
     </g>
     <g id="text_7">
      <!-- 30 -->
      <g style="fill: #898781" transform="translate(410.203917 270.433) scale(0.09 -0.09)">
       <defs>
        <path id="HelveticaNeue-1a" d="M 1395 2592 
L 1395 2131 
Q 1549 2150 1722 2150 
Q 1926 2150 2102 2096 
Q 2278 2042 2406 1930 
Q 2534 1818 2611 1654 
Q 2688 1491 2688 1280 
Q 2688 1075 2608 912 
Q 2528 749 2393 637 
Q 2259 525 2080 464 
Q 1901 403 1702 403 
Q 1235 403 992 681 
Q 749 960 736 1402 
L 192 1402 
Q 186 1050 291 774 
Q 397 499 595 310 
Q 794 122 1075 26 
Q 1357 -70 1702 -70 
Q 2022 -70 2307 16 
Q 2592 102 2803 275 
Q 3014 448 3139 707 
Q 3264 966 3264 1306 
Q 3264 1715 3062 2016 
Q 2861 2317 2445 2406 
L 2445 2419 
Q 2714 2541 2893 2777 
Q 3072 3014 3072 3322 
Q 3072 3635 2966 3865 
Q 2861 4096 2675 4243 
Q 2490 4390 2237 4464 
Q 1984 4538 1690 4538 
Q 1350 4538 1091 4429 
Q 832 4320 659 4128 
Q 486 3936 393 3667 
Q 301 3398 288 3072 
L 832 3072 
Q 832 3270 883 3449 
Q 934 3629 1040 3763 
Q 1146 3898 1309 3978 
Q 1472 4058 1690 4058 
Q 2035 4058 2265 3875 
Q 2496 3693 2496 3328 
Q 2496 3149 2425 3008 
Q 2355 2867 2236 2774 
Q 2118 2682 1961 2634 
Q 1805 2586 1632 2586 
L 1517 2586 
Q 1485 2586 1453 2586 
Q 1427 2586 1395 2592 
z
" transform="scale(0.015625)"/>
       </defs>
       <use xlink:href="#HelveticaNeue-1a"/>
       <use xlink:href="#HelveticaNeue-17" transform="translate(55.59375 0)"/>
      </g>
     </g>
    </g>
    <g id="text_8">
     <!-- days since launch -->
     <g style="fill: #52514e" transform="translate(219.231562 285.87) scale(0.1 -0.1)">
      <defs>
       <path id="HelveticaNeue-4b" d="M 806 1626 
Q 806 1869 857 2099 
Q 909 2330 1024 2509 
Q 1139 2688 1331 2797 
Q 1523 2906 1798 2906 
Q 2080 2906 2278 2800 
Q 2477 2694 2601 2521 
Q 2726 2349 2784 2121 
Q 2842 1894 2842 1651 
Q 2842 1421 2787 1197 
Q 2733 973 2611 797 
Q 2490 621 2298 512 
Q 2106 403 1830 403 
Q 1568 403 1373 505 
Q 1178 608 1053 781 
Q 928 954 867 1174 
Q 806 1395 806 1626 
z
M 3366 0 
L 3366 4570 
L 2822 4570 
L 2822 2867 
L 2810 2867 
Q 2720 3014 2589 3113 
Q 2458 3213 2310 3273 
Q 2163 3334 2016 3360 
Q 1869 3386 1741 3386 
Q 1363 3386 1078 3248 
Q 794 3110 605 2876 
Q 416 2643 323 2329 
Q 230 2016 230 1664 
Q 230 1312 326 998 
Q 422 685 611 448 
Q 800 211 1085 70 
Q 1370 -70 1754 -70 
Q 2099 -70 2387 51 
Q 2675 173 2810 448 
L 2822 448 
L 2822 0 
L 3366 0 
z
" transform="scale(0.015625)"/>
       <path id="HelveticaNeue-48" d="M 3341 13 
Q 3200 -70 2950 -70 
Q 2739 -70 2614 48 
Q 2490 166 2490 435 
Q 2266 166 1968 48 
Q 1670 -70 1325 -70 
Q 1101 -70 899 -19 
Q 698 32 550 141 
Q 403 250 316 426 
Q 230 602 230 851 
Q 230 1133 326 1312 
Q 422 1491 579 1603 
Q 736 1715 937 1772 
Q 1139 1830 1350 1869 
Q 1574 1914 1776 1936 
Q 1978 1958 2131 2000 
Q 2285 2042 2374 2122 
Q 2464 2202 2464 2355 
Q 2464 2534 2397 2643 
Q 2330 2752 2224 2809 
Q 2118 2867 1987 2886 
Q 1856 2906 1728 2906 
Q 1382 2906 1152 2774 
Q 922 2643 902 2278 
L 358 2278 
Q 371 2586 486 2797 
Q 602 3008 794 3139 
Q 986 3270 1232 3328 
Q 1478 3386 1760 3386 
Q 1984 3386 2205 3354 
Q 2426 3322 2605 3222 
Q 2784 3123 2893 2944 
Q 3002 2765 3002 2477 
L 3002 774 
Q 3002 582 3024 492 
Q 3046 403 3174 403 
Q 3245 403 3341 435 
L 3341 13 
z
M 2458 1709 
Q 2355 1632 2188 1597 
Q 2022 1562 1840 1539 
Q 1658 1517 1472 1488 
Q 1286 1459 1139 1395 
Q 992 1331 899 1212 
Q 806 1094 806 890 
Q 806 755 860 662 
Q 915 570 1001 512 
Q 1088 454 1203 428 
Q 1318 403 1446 403 
Q 1715 403 1907 476 
Q 2099 550 2220 662 
Q 2342 774 2400 905 
Q 2458 1037 2458 1152 
L 2458 1709 
z
" transform="scale(0.015625)"/>
       <path id="HelveticaNeue-60" d="M 1709 -442 
Q 1613 -685 1520 -851 
Q 1427 -1018 1315 -1123 
Q 1203 -1229 1065 -1277 
Q 928 -1325 749 -1325 
Q 653 -1325 557 -1312 
Q 461 -1299 371 -1267 
L 371 -768 
Q 442 -800 534 -822 
Q 627 -845 691 -845 
Q 858 -845 970 -765 
Q 1082 -685 1139 -538 
L 1363 19 
L 51 3309 
L 666 3309 
L 1632 602 
L 1645 602 
L 2573 3309 
L 3149 3309 
L 1709 -442 
z
" transform="scale(0.015625)"/>
       <path id="HelveticaNeue-5a" d="M 742 1043 
L 198 1043 
Q 211 736 326 521 
Q 442 307 634 176 
Q 826 45 1075 -12 
Q 1325 -70 1600 -70 
Q 1850 -70 2102 -22 
Q 2355 26 2556 147 
Q 2758 269 2883 467 
Q 3008 666 3008 966 
Q 3008 1203 2915 1363 
Q 2822 1523 2672 1628 
Q 2522 1734 2326 1798 
Q 2131 1862 1926 1907 
Q 1734 1952 1542 1993 
Q 1350 2035 1196 2096 
Q 1043 2157 944 2249 
Q 845 2342 845 2483 
Q 845 2611 909 2691 
Q 973 2771 1075 2819 
Q 1178 2867 1302 2886 
Q 1427 2906 1549 2906 
Q 1683 2906 1814 2877 
Q 1946 2848 2054 2784 
Q 2163 2720 2233 2614 
Q 2304 2509 2317 2349 
L 2861 2349 
Q 2842 2650 2733 2851 
Q 2624 3053 2441 3171 
Q 2259 3290 2022 3338 
Q 1786 3386 1504 3386 
Q 1286 3386 1065 3331 
Q 845 3277 669 3165 
Q 493 3053 381 2873 
Q 269 2694 269 2445 
Q 269 2125 429 1945 
Q 589 1766 829 1667 
Q 1069 1568 1350 1513 
Q 1632 1459 1872 1392 
Q 2112 1325 2272 1216 
Q 2432 1107 2432 896 
Q 2432 742 2355 643 
Q 2278 544 2160 493 
Q 2042 442 1901 422 
Q 1760 403 1632 403 
Q 1466 403 1309 435 
Q 1152 467 1027 540 
Q 902 614 825 739 
Q 749 864 742 1043 
z
" transform="scale(0.015625)"/>
       <path id="HelveticaNeue-3" transform="scale(0.015625)"/>
       <path id="HelveticaNeue-50" d="M 986 3904 
L 986 4570 
L 442 4570 
L 442 3904 
L 986 3904 
z
M 442 3309 
L 442 0 
L 986 0 
L 986 3309 
L 442 3309 
z
" transform="scale(0.015625)"/>
       <path id="HelveticaNeue-55" d="M 410 3309 
L 410 0 
L 954 0 
L 954 1869 
Q 954 2093 1014 2281 
Q 1075 2470 1196 2611 
Q 1318 2752 1500 2829 
Q 1683 2906 1933 2906 
Q 2246 2906 2425 2726 
Q 2605 2547 2605 2240 
L 2605 0 
L 3149 0 
L 3149 2176 
Q 3149 2445 3094 2665 
Q 3040 2886 2905 3046 
Q 2771 3206 2553 3296 
Q 2336 3386 2010 3386 
Q 1274 3386 934 2784 
L 922 2784 
L 922 3309 
L 410 3309 
z
" transform="scale(0.015625)"/>
       <path id="HelveticaNeue-4a" d="M 2656 2246 
L 3219 2246 
Q 3187 2541 3065 2755 
Q 2944 2970 2755 3110 
Q 2566 3251 2320 3318 
Q 2074 3386 1792 3386 
Q 1402 3386 1107 3248 
Q 813 3110 617 2870 
Q 422 2630 326 2307 
Q 230 1984 230 1613 
Q 230 1242 329 931 
Q 429 621 624 397 
Q 819 173 1110 51 
Q 1402 -70 1779 -70 
Q 2413 -70 2781 262 
Q 3149 595 3238 1210 
L 2682 1210 
Q 2630 826 2403 614 
Q 2176 403 1773 403 
Q 1517 403 1331 505 
Q 1146 608 1030 777 
Q 915 947 860 1164 
Q 806 1382 806 1613 
Q 806 1862 857 2096 
Q 909 2330 1027 2509 
Q 1146 2688 1344 2797 
Q 1542 2906 1837 2906 
Q 2182 2906 2387 2733 
Q 2592 2560 2656 2246 
z
" transform="scale(0.015625)"/>
       <path id="HelveticaNeue-4c" d="M 2707 1971 
L 806 1971 
Q 819 2163 889 2332 
Q 960 2502 1081 2630 
Q 1203 2758 1372 2832 
Q 1542 2906 1754 2906 
Q 1958 2906 2128 2832 
Q 2298 2758 2422 2633 
Q 2547 2509 2620 2336 
Q 2694 2163 2707 1971 
z
M 3232 1050 
L 2694 1050 
Q 2624 723 2403 563 
Q 2182 403 1837 403 
Q 1568 403 1369 492 
Q 1171 582 1043 732 
Q 915 883 857 1078 
Q 800 1274 806 1491 
L 3283 1491 
Q 3296 1792 3229 2125 
Q 3162 2458 2986 2739 
Q 2810 3021 2518 3203 
Q 2227 3386 1786 3386 
Q 1446 3386 1161 3258 
Q 877 3130 669 2899 
Q 461 2669 345 2355 
Q 230 2042 230 1664 
Q 243 1286 342 966 
Q 442 646 640 416 
Q 838 186 1129 58 
Q 1421 -70 1818 -70 
Q 2381 -70 2752 211 
Q 3123 493 3232 1050 
z
" transform="scale(0.015625)"/>
       <path id="HelveticaNeue-53" d="M 442 4570 
L 442 0 
L 986 0 
L 986 4570 
L 442 4570 
z
" transform="scale(0.015625)"/>
       <path id="HelveticaNeue-5c" d="M 3149 0 
L 3149 3309 
L 2605 3309 
L 2605 1440 
Q 2605 1216 2544 1027 
Q 2483 838 2361 697 
Q 2240 557 2057 480 
Q 1875 403 1626 403 
Q 1312 403 1133 582 
Q 954 762 954 1069 
L 954 3309 
L 410 3309 
L 410 1133 
Q 410 864 464 643 
Q 518 422 652 262 
Q 787 102 1004 16 
Q 1222 -70 1549 -70 
Q 1914 -70 2182 74 
Q 2451 218 2624 525 
L 2637 525 
L 2637 0 
L 3149 0 
z
" transform="scale(0.015625)"/>
       <path id="HelveticaNeue-4f" d="M 410 4570 
L 410 0 
L 954 0 
L 954 1869 
Q 954 2093 1014 2281 
Q 1075 2470 1196 2611 
Q 1318 2752 1500 2829 
Q 1683 2906 1933 2906 
Q 2246 2906 2425 2726 
Q 2605 2547 2605 2240 
L 2605 0 
L 3149 0 
L 3149 2176 
Q 3149 2445 3094 2665 
Q 3040 2886 2905 3046 
Q 2771 3206 2553 3296 
Q 2336 3386 2010 3386 
Q 1862 3386 1705 3354 
Q 1549 3322 1405 3254 
Q 1261 3187 1145 3081 
Q 1030 2976 966 2822 
L 954 2822 
L 954 4570 
L 410 4570 
z
" transform="scale(0.015625)"/>
      </defs>
      <use xlink:href="#HelveticaNeue-4b"/>
      <use xlink:href="#HelveticaNeue-48" transform="translate(59.296875 0)"/>
      <use xlink:href="#HelveticaNeue-60" transform="translate(113 0)"/>
      <use xlink:href="#HelveticaNeue-5a" transform="translate(163 0)"/>
      <use xlink:href="#HelveticaNeue-3" transform="translate(213 0)"/>
      <use xlink:href="#HelveticaNeue-5a" transform="translate(240.796875 0)"/>
      <use xlink:href="#HelveticaNeue-50" transform="translate(290.796875 0)"/>
      <use xlink:href="#HelveticaNeue-55" transform="translate(313 0)"/>
      <use xlink:href="#HelveticaNeue-4a" transform="translate(368.59375 0)"/>
      <use xlink:href="#HelveticaNeue-4c" transform="translate(422.296875 0)"/>
      <use xlink:href="#HelveticaNeue-3" transform="translate(476 0)"/>
      <use xlink:href="#HelveticaNeue-53" transform="translate(503.796875 0)"/>
      <use xlink:href="#HelveticaNeue-48" transform="translate(526 0)"/>
      <use xlink:href="#HelveticaNeue-5c" transform="translate(579.703125 0)"/>
      <use xlink:href="#HelveticaNeue-55" transform="translate(635.296875 0)"/>
      <use xlink:href="#HelveticaNeue-4a" transform="translate(690.890625 0)"/>
      <use xlink:href="#HelveticaNeue-4f" transform="translate(744.59375 0)"/>
     </g>
    </g>
   </g>
   <g id="matplotlib.axis_2">
    <g id="ytick_1">
     <g id="line2d_15">
      <path d="M 47.362031 244.412045 
L 471.119844 244.412045 
" clip-path="url(#p762fdc157f)" style="fill: none; stroke: #e1e0d9; stroke-width: 0.8; stroke-linecap: square"/>
     </g>
     <g id="line2d_16">
      <defs>
       <path id="m68c4f502b4" d="M 0 0 
L -3.5 0 
" style="stroke: #898781; stroke-width: 0.8"/>
      </defs>
      <g>
       <use xlink:href="#m68c4f502b4" x="47.362031" y="244.412045" style="fill: #898781; stroke: #898781; stroke-width: 0.8"/>
      </g>
     </g>
     <g id="text_9">
      <!-- 0.10 -->
      <g style="fill: #898781" transform="translate(22.85 248.696045) scale(0.09 -0.09)">
       <defs>
        <path id="HelveticaNeue-15" d="M 531 710 
L 531 0 
L 1242 0 
L 1242 710 
L 531 710 
z
" transform="scale(0.015625)"/>
       </defs>
       <use xlink:href="#HelveticaNeue-17"/>
       <use xlink:href="#HelveticaNeue-15" transform="translate(55.59375 0)"/>
       <use xlink:href="#HelveticaNeue-18" transform="translate(83.390625 0)"/>
       <use xlink:href="#HelveticaNeue-17" transform="translate(138.984375 0)"/>
      </g>
     </g>
    </g>
    <g id="ytick_2">
     <g id="line2d_17">
      <path d="M 47.362031 218.279659 
L 471.119844 218.279659 
" clip-path="url(#p762fdc157f)" style="fill: none; stroke: #e1e0d9; stroke-width: 0.8; stroke-linecap: square"/>
     </g>
     <g id="line2d_18">
      <g>
       <use xlink:href="#m68c4f502b4" x="47.362031" y="218.279659" style="fill: #898781; stroke: #898781; stroke-width: 0.8"/>
      </g>
     </g>
     <g id="text_10">
      <!-- 0.15 -->
      <g style="fill: #898781" transform="translate(22.85 222.563659) scale(0.09 -0.09)">
       <use xlink:href="#HelveticaNeue-17"/>
       <use xlink:href="#HelveticaNeue-15" transform="translate(55.59375 0)"/>
       <use xlink:href="#HelveticaNeue-18" transform="translate(83.390625 0)"/>
       <use xlink:href="#HelveticaNeue-1c" transform="translate(138.984375 0)"/>
      </g>
     </g>
    </g>
    <g id="ytick_3">
     <g id="line2d_19">
      <path d="M 47.362031 192.147273 
L 471.119844 192.147273 
" clip-path="url(#p762fdc157f)" style="fill: none; stroke: #e1e0d9; stroke-width: 0.8; stroke-linecap: square"/>
     </g>
     <g id="line2d_20">
      <g>
       <use xlink:href="#m68c4f502b4" x="47.362031" y="192.147273" style="fill: #898781; stroke: #898781; stroke-width: 0.8"/>
      </g>
     </g>
     <g id="text_11">
      <!-- 0.20 -->
      <g style="fill: #898781" transform="translate(22.85 196.431273) scale(0.09 -0.09)">
       <use xlink:href="#HelveticaNeue-17"/>
       <use xlink:href="#HelveticaNeue-15" transform="translate(55.59375 0)"/>
       <use xlink:href="#HelveticaNeue-19" transform="translate(83.390625 0)"/>
       <use xlink:href="#HelveticaNeue-17" transform="translate(138.984375 0)"/>
      </g>
     </g>
    </g>
    <g id="ytick_4">
     <g id="line2d_21">
      <path d="M 47.362031 166.014886 
L 471.119844 166.014886 
" clip-path="url(#p762fdc157f)" style="fill: none; stroke: #e1e0d9; stroke-width: 0.8; stroke-linecap: square"/>
     </g>
     <g id="line2d_22">
      <g>
       <use xlink:href="#m68c4f502b4" x="47.362031" y="166.014886" style="fill: #898781; stroke: #898781; stroke-width: 0.8"/>
      </g>
     </g>
     <g id="text_12">
      <!-- 0.25 -->
      <g style="fill: #898781" transform="translate(22.85 170.298886) scale(0.09 -0.09)">
       <use xlink:href="#HelveticaNeue-17"/>
       <use xlink:href="#HelveticaNeue-15" transform="translate(55.59375 0)"/>
       <use xlink:href="#HelveticaNeue-19" transform="translate(83.390625 0)"/>
       <use xlink:href="#HelveticaNeue-1c" transform="translate(138.984375 0)"/>
      </g>
     </g>
    </g>
    <g id="ytick_5">
     <g id="line2d_23">
      <path d="M 47.362031 139.8825 
L 471.119844 139.8825 
" clip-path="url(#p762fdc157f)" style="fill: none; stroke: #e1e0d9; stroke-width: 0.8; stroke-linecap: square"/>
     </g>
     <g id="line2d_24">
      <g>
       <use xlink:href="#m68c4f502b4" x="47.362031" y="139.8825" style="fill: #898781; stroke: #898781; stroke-width: 0.8"/>
      </g>
     </g>
     <g id="text_13">
      <!-- 0.30 -->
      <g style="fill: #898781" transform="translate(22.85 144.1665) scale(0.09 -0.09)">
       <use xlink:href="#HelveticaNeue-17"/>
       <use xlink:href="#HelveticaNeue-15" transform="translate(55.59375 0)"/>
       <use xlink:href="#HelveticaNeue-1a" transform="translate(83.390625 0)"/>
       <use xlink:href="#HelveticaNeue-17" transform="translate(138.984375 0)"/>
      </g>
     </g>
    </g>
    <g id="ytick_6">
     <g id="line2d_25">
      <path d="M 47.362031 113.750114 
L 471.119844 113.750114 
" clip-path="url(#p762fdc157f)" style="fill: none; stroke: #e1e0d9; stroke-width: 0.8; stroke-linecap: square"/>
     </g>
     <g id="line2d_26">
      <g>
       <use xlink:href="#m68c4f502b4" x="47.362031" y="113.750114" style="fill: #898781; stroke: #898781; stroke-width: 0.8"/>
      </g>
     </g>
     <g id="text_14">
      <!-- 0.35 -->
      <g style="fill: #898781" transform="translate(22.85 118.034114) scale(0.09 -0.09)">
       <use xlink:href="#HelveticaNeue-17"/>
       <use xlink:href="#HelveticaNeue-15" transform="translate(55.59375 0)"/>
       <use xlink:href="#HelveticaNeue-1a" transform="translate(83.390625 0)"/>
       <use xlink:href="#HelveticaNeue-1c" transform="translate(138.984375 0)"/>
      </g>
     </g>
    </g>
    <g id="ytick_7">
     <g id="line2d_27">
      <path d="M 47.362031 87.617727 
L 471.119844 87.617727 
" clip-path="url(#p762fdc157f)" style="fill: none; stroke: #e1e0d9; stroke-width: 0.8; stroke-linecap: square"/>
     </g>
     <g id="line2d_28">
      <g>
       <use xlink:href="#m68c4f502b4" x="47.362031" y="87.617727" style="fill: #898781; stroke: #898781; stroke-width: 0.8"/>
      </g>
     </g>
     <g id="text_15">
      <!-- 0.40 -->
      <g style="fill: #898781" transform="translate(22.85 91.901727) scale(0.09 -0.09)">
       <defs>
        <path id="HelveticaNeue-1b" d="M 2170 1542 
L 646 1542 
L 2157 3763 
L 2170 3763 
L 2170 1542 
z
M 2682 1542 
L 2682 4538 
L 2246 4538 
L 179 1587 
L 179 1062 
L 2170 1062 
L 2170 0 
L 2682 0 
L 2682 1062 
L 3296 1062 
L 3296 1542 
L 2682 1542 
z
" transform="scale(0.015625)"/>
       </defs>
       <use xlink:href="#HelveticaNeue-17"/>
       <use xlink:href="#HelveticaNeue-15" transform="translate(55.59375 0)"/>
       <use xlink:href="#HelveticaNeue-1b" transform="translate(83.390625 0)"/>
       <use xlink:href="#HelveticaNeue-17" transform="translate(138.984375 0)"/>
      </g>
     </g>
    </g>
    <g id="ytick_8">
     <g id="line2d_29">
      <path d="M 47.362031 61.485341 
L 471.119844 61.485341 
" clip-path="url(#p762fdc157f)" style="fill: none; stroke: #e1e0d9; stroke-width: 0.8; stroke-linecap: square"/>
     </g>
     <g id="line2d_30">
      <g>
       <use xlink:href="#m68c4f502b4" x="47.362031" y="61.485341" style="fill: #898781; stroke: #898781; stroke-width: 0.8"/>
      </g>
     </g>
     <g id="text_16">
      <!-- 0.45 -->
      <g style="fill: #898781" transform="translate(22.85 65.769341) scale(0.09 -0.09)">
       <use xlink:href="#HelveticaNeue-17"/>
       <use xlink:href="#HelveticaNeue-15" transform="translate(55.59375 0)"/>
       <use xlink:href="#HelveticaNeue-1b" transform="translate(83.390625 0)"/>
       <use xlink:href="#HelveticaNeue-1c" transform="translate(138.984375 0)"/>
      </g>
     </g>
    </g>
    <g id="ytick_9">
     <g id="line2d_31">
      <path d="M 47.362031 35.352955 
L 471.119844 35.352955 
" clip-path="url(#p762fdc157f)" style="fill: none; stroke: #e1e0d9; stroke-width: 0.8; stroke-linecap: square"/>
     </g>
     <g id="line2d_32">
      <g>
       <use xlink:href="#m68c4f502b4" x="47.362031" y="35.352955" style="fill: #898781; stroke: #898781; stroke-width: 0.8"/>
      </g>
     </g>
     <g id="text_17">
      <!-- 0.50 -->
      <g style="fill: #898781" transform="translate(22.85 39.636955) scale(0.09 -0.09)">
       <use xlink:href="#HelveticaNeue-17"/>
       <use xlink:href="#HelveticaNeue-15" transform="translate(55.59375 0)"/>
       <use xlink:href="#HelveticaNeue-1c" transform="translate(83.390625 0)"/>
       <use xlink:href="#HelveticaNeue-17" transform="translate(138.984375 0)"/>
      </g>
     </g>
    </g>
    <g id="text_18">
     <!-- treatment effect -->
     <g style="fill: #52514e" transform="translate(16.72 175.187969) rotate(-90) scale(0.1 -0.1)">
      <defs>
       <path id="HelveticaNeue-5b" d="M 1165 3309 
L 1165 4301 
L 621 4301 
L 621 3309 
L 58 3309 
L 58 2829 
L 621 2829 
L 621 723 
Q 621 493 665 352 
Q 710 211 803 134 
Q 896 58 1046 29 
Q 1197 0 1408 0 
L 1824 0 
L 1824 480 
L 1574 480 
Q 1446 480 1366 489 
Q 1286 499 1241 531 
Q 1197 563 1181 620 
Q 1165 678 1165 774 
L 1165 2829 
L 1824 2829 
L 1824 3309 
L 1165 3309 
z
" transform="scale(0.015625)"/>
       <path id="HelveticaNeue-59" d="M 390 3309 
L 390 0 
L 934 0 
L 934 1472 
Q 934 1792 998 2038 
Q 1062 2285 1203 2457 
Q 1344 2630 1574 2720 
Q 1805 2810 2131 2810 
L 2131 3386 
Q 1690 3398 1402 3206 
Q 1114 3014 915 2611 
L 902 2611 
L 902 3309 
L 390 3309 
z
" transform="scale(0.015625)"/>
       <path id="HelveticaNeue-54" d="M 410 3309 
L 410 0 
L 954 0 
L 954 2061 
Q 954 2157 1002 2301 
Q 1050 2445 1155 2579 
Q 1261 2714 1430 2810 
Q 1600 2906 1837 2906 
Q 2022 2906 2140 2851 
Q 2259 2797 2329 2697 
Q 2400 2598 2429 2464 
Q 2458 2330 2458 2170 
L 2458 0 
L 3002 0 
L 3002 2061 
Q 3002 2445 3232 2675 
Q 3462 2906 3866 2906 
Q 4064 2906 4189 2848 
Q 4314 2790 4384 2691 
Q 4454 2592 4480 2457 
Q 4506 2323 4506 2170 
L 4506 0 
L 5050 0 
L 5050 2426 
Q 5050 2682 4970 2864 
Q 4890 3046 4746 3161 
Q 4602 3277 4400 3331 
Q 4198 3386 3949 3386 
Q 3622 3386 3350 3238 
Q 3078 3091 2912 2822 
Q 2810 3130 2560 3258 
Q 2310 3386 2003 3386 
Q 1306 3386 934 2822 
L 922 2822 
L 922 3309 
L 410 3309 
z
" transform="scale(0.015625)"/>
       <path id="HelveticaNeue-248" d="M 2432 2829 
L 1178 2829 
L 1178 0 
L 634 0 
L 634 2829 
L 77 2829 
L 77 3309 
L 634 3309 
L 634 3802 
Q 634 4205 867 4413 
Q 1101 4621 1549 4621 
Q 1626 4621 1725 4608 
Q 1824 4595 1901 4570 
L 1901 4096 
Q 1830 4122 1747 4131 
Q 1664 4141 1594 4141 
Q 1395 4141 1286 4064 
Q 1178 3987 1178 3770 
L 1178 3309 
L 2432 3309 
L 2432 3802 
Q 2432 4205 2665 4413 
Q 2899 4621 3347 4621 
Q 3424 4621 3523 4608 
Q 3622 4595 3699 4570 
L 3699 4096 
Q 3629 4122 3545 4131 
Q 3462 4141 3392 4141 
Q 3194 4141 3085 4064 
Q 2976 3987 2976 3770 
L 2976 3309 
L 3616 3309 
L 3616 2829 
L 2976 2829 
L 2976 0 
L 2432 0 
L 2432 2829 
z
" transform="scale(0.015625)"/>
      </defs>
      <use xlink:href="#HelveticaNeue-5b"/>
      <use xlink:href="#HelveticaNeue-59" transform="translate(31.5 0)"/>
      <use xlink:href="#HelveticaNeue-4c" transform="translate(63 0)"/>
      <use xlink:href="#HelveticaNeue-48" transform="translate(116.703125 0)"/>
      <use xlink:href="#HelveticaNeue-5b" transform="translate(170.40625 0)"/>
      <use xlink:href="#HelveticaNeue-54" transform="translate(201.90625 0)"/>
      <use xlink:href="#HelveticaNeue-4c" transform="translate(287.203125 0)"/>
      <use xlink:href="#HelveticaNeue-55" transform="translate(340.90625 0)"/>
      <use xlink:href="#HelveticaNeue-5b" transform="translate(396.5 0)"/>
      <use xlink:href="#HelveticaNeue-3" transform="translate(428 0)"/>
      <use xlink:href="#HelveticaNeue-4c" transform="translate(455.796875 0)"/>
      <use xlink:href="#HelveticaNeue-248" transform="translate(509.5 0)"/>
      <use xlink:href="#HelveticaNeue-4c" transform="translate(567.203125 0)"/>
      <use xlink:href="#HelveticaNeue-4a" transform="translate(620.90625 0)"/>
      <use xlink:href="#HelveticaNeue-5b" transform="translate(674.609375 0)"/>
     </g>
    </g>
   </g>
   <g id="line2d_33">
    <path d="M 47.362031 244.412045 
L 471.119844 244.412045 
" clip-path="url(#p762fdc157f)" style="fill: none; stroke-dasharray: 5.55,2.4; stroke-dashoffset: 0; stroke: #898781; stroke-width: 1.5"/>
   </g>
   <g id="line2d_34">
    <path d="M 47.362031 35.352955 
L 59.623542 73.248939 
L 71.885053 104.275546 
L 84.146564 129.677984 
L 96.408074 150.475741 
L 108.669585 167.503504 
L 120.931096 181.444657 
L 133.192607 192.858708 
L 145.454117 202.203743 
L 157.715628 209.85481 
L 169.977139 216.118974 
L 182.23865 221.247638 
L 194.500161 225.446633 
L 206.761671 228.884479 
L 219.023182 231.699149 
L 231.284693 234.003606 
L 243.546204 235.890336 
L 255.807714 237.43506 
L 268.069225 238.699773 
L 280.330736 239.735232 
L 292.592247 240.582995 
L 304.853758 241.277084 
L 317.115268 241.845356 
L 329.376779 242.310618 
L 341.63829 242.691542 
L 353.899801 243.003416 
L 366.161311 243.258758 
L 378.422822 243.467813 
" clip-path="url(#p762fdc157f)" style="fill: none; stroke: #52514e; stroke-width: 1.5; stroke-linecap: square"/>
   </g>
   <g id="LineCollection_1">
    <path d="M 47.362031 130.521773 
L 120.931096 130.521773 
" clip-path="url(#p762fdc157f)" style="fill: none; stroke: #e34948; stroke-width: 3"/>
   </g>
   <g id="LineCollection_2">
    <path d="M 47.362031 197.299637 
L 378.422822 197.299637 
" clip-path="url(#p762fdc157f)" style="fill: none; stroke: #1baf7a; stroke-width: 3"/>
   </g>
   <g id="LineCollection_3">
    <path d="M 304.853758 228.413964 
L 378.422822 228.413964 
" clip-path="url(#p762fdc157f)" style="fill: none; stroke: #2a78d6; stroke-width: 3"/>
   </g>
   <g id="patch_3">
    <path d="M 47.362031 254.865 
L 47.362031 24.9 
" style="fill: none; stroke: #c3c2b7; stroke-width: 0.8; stroke-linejoin: miter; stroke-linecap: square"/>
   </g>
   <g id="patch_4">
    <path d="M 47.362031 254.865 
L 471.119844 254.865 
" style="fill: none; stroke: #c3c2b7; stroke-width: 0.8; stroke-linejoin: miter; stroke-linecap: square"/>
   </g>
   <g id="text_19">
    <g id="patch_5">
     <path d="M 380.804531 243.859045 
L 470.649844 243.859045 
L 470.649844 230.314045 
L 380.804531 230.314045 
z
" style="fill: #fcfcfb"/>
    </g>
    <!-- long-run effect = 0.10 -->
    <g style="fill: #52514e" transform="translate(382.334531 240.412045) scale(0.09 -0.09)">
     <defs>
      <path id="HelveticaNeue-56" d="M 806 1651 
Q 806 1952 886 2185 
Q 966 2419 1107 2579 
Q 1248 2739 1437 2822 
Q 1626 2906 1837 2906 
Q 2048 2906 2237 2822 
Q 2426 2739 2566 2579 
Q 2707 2419 2787 2185 
Q 2867 1952 2867 1651 
Q 2867 1350 2787 1116 
Q 2707 883 2566 726 
Q 2426 570 2237 486 
Q 2048 403 1837 403 
Q 1626 403 1437 486 
Q 1248 570 1107 726 
Q 966 883 886 1116 
Q 806 1350 806 1651 
z
M 230 1651 
Q 230 1286 332 972 
Q 435 659 640 425 
Q 845 192 1145 61 
Q 1446 -70 1837 -70 
Q 2234 -70 2531 61 
Q 2829 192 3033 425 
Q 3238 659 3340 972 
Q 3443 1286 3443 1651 
Q 3443 2016 3340 2333 
Q 3238 2650 3033 2883 
Q 2829 3117 2531 3251 
Q 2234 3386 1837 3386 
Q 1446 3386 1145 3251 
Q 845 3117 640 2883 
Q 435 2650 332 2333 
Q 230 2016 230 1651 
z
" transform="scale(0.015625)"/>
      <path id="HelveticaNeue-4e" d="M 3264 282 
L 3264 3309 
L 2752 3309 
L 2752 2835 
L 2746 2835 
Q 2598 3110 2336 3248 
Q 2074 3386 1760 3386 
Q 1331 3386 1036 3222 
Q 742 3059 563 2806 
Q 384 2554 307 2243 
Q 230 1933 230 1638 
Q 230 1299 323 995 
Q 416 691 601 464 
Q 787 237 1062 102 
Q 1338 -32 1709 -32 
Q 2029 -32 2313 112 
Q 2598 256 2739 563 
L 2752 563 
L 2752 346 
Q 2752 70 2697 -160 
Q 2643 -390 2521 -553 
Q 2400 -717 2214 -809 
Q 2029 -902 1760 -902 
Q 1626 -902 1478 -873 
Q 1331 -845 1206 -781 
Q 1082 -717 995 -614 
Q 909 -512 902 -365 
L 358 -365 
Q 371 -634 499 -819 
Q 627 -1005 822 -1120 
Q 1018 -1235 1258 -1286 
Q 1498 -1338 1728 -1338 
Q 2522 -1338 2893 -934 
Q 3264 -531 3264 282 
z
M 1741 442 
Q 1472 442 1293 554 
Q 1114 666 1005 848 
Q 896 1030 851 1254 
Q 806 1478 806 1702 
Q 806 1939 860 2156 
Q 915 2374 1033 2540 
Q 1152 2707 1337 2806 
Q 1523 2906 1786 2906 
Q 2042 2906 2221 2803 
Q 2400 2701 2512 2531 
Q 2624 2362 2675 2150 
Q 2726 1939 2726 1722 
Q 2726 1491 2672 1260 
Q 2618 1030 2502 848 
Q 2387 666 2198 554 
Q 2010 442 1741 442 
z
" transform="scale(0.015625)"/>
      <path id="HelveticaNeue-14" d="M 320 2035 
L 320 1523 
L 2170 1523 
L 2170 2035 
L 320 2035 
z
" transform="scale(0.015625)"/>
      <path id="HelveticaNeue-24" d="M 307 1190 
L 307 755 
L 3533 755 
L 3533 1190 
L 307 1190 
z
M 3533 2048 
L 3533 2483 
L 307 2483 
L 307 2048 
L 3533 2048 
z
" transform="scale(0.015625)"/>
     </defs>
     <use xlink:href="#HelveticaNeue-53"/>
     <use xlink:href="#HelveticaNeue-56" transform="translate(22.203125 0)"/>
     <use xlink:href="#HelveticaNeue-55" transform="translate(79.609375 0)"/>
     <use xlink:href="#HelveticaNeue-4e" transform="translate(135.203125 0)"/>
     <use xlink:href="#HelveticaNeue-14" transform="translate(192.609375 0)"/>
     <use xlink:href="#HelveticaNeue-59" transform="translate(231.515625 0)"/>
     <use xlink:href="#HelveticaNeue-5c" transform="translate(264.8125 0)"/>
     <use xlink:href="#HelveticaNeue-55" transform="translate(320.40625 0)"/>
     <use xlink:href="#HelveticaNeue-3" transform="translate(376 0)"/>
     <use xlink:href="#HelveticaNeue-4c" transform="translate(403.796875 0)"/>
     <use xlink:href="#HelveticaNeue-248" transform="translate(457.5 0)"/>
     <use xlink:href="#HelveticaNeue-4c" transform="translate(515.203125 0)"/>
     <use xlink:href="#HelveticaNeue-4a" transform="translate(568.90625 0)"/>
     <use xlink:href="#HelveticaNeue-5b" transform="translate(622.609375 0)"/>
     <use xlink:href="#HelveticaNeue-3" transform="translate(654.109375 0)"/>
     <use xlink:href="#HelveticaNeue-24" transform="translate(681.90625 0)"/>
     <use xlink:href="#HelveticaNeue-3" transform="translate(741.90625 0)"/>
     <use xlink:href="#HelveticaNeue-17" transform="translate(769.703125 0)"/>
     <use xlink:href="#HelveticaNeue-15" transform="translate(825.296875 0)"/>
     <use xlink:href="#HelveticaNeue-18" transform="translate(853.09375 0)"/>
     <use xlink:href="#HelveticaNeue-17" transform="translate(908.6875 0)"/>
    </g>
   </g>
   <g id="text_20">
    <!-- week-1 readout: 0.32 -->
    <g style="fill: #e34948" transform="translate(124.931096 133.521773) scale(0.09 -0.09)">
     <defs>
      <path id="HelveticaNeue-Bold-5e" d="M 4128 0 
L 5171 3309 
L 4237 3309 
L 3629 1069 
L 3616 1069 
L 3053 3309 
L 2170 3309 
L 1619 1062 
L 1606 1062 
L 998 3309 
L 38 3309 
L 1088 0 
L 2029 0 
L 2592 2221 
L 2605 2221 
L 3194 0 
L 4128 0 
z
" transform="scale(0.015625)"/>
      <path id="HelveticaNeue-Bold-4c" d="M 2573 2010 
L 1094 2010 
Q 1101 2106 1136 2227 
Q 1171 2349 1257 2457 
Q 1344 2566 1488 2640 
Q 1632 2714 1850 2714 
Q 2182 2714 2345 2534 
Q 2509 2355 2573 2010 
z
M 1094 1434 
L 3482 1434 
Q 3507 1818 3417 2170 
Q 3328 2522 3126 2797 
Q 2925 3072 2611 3235 
Q 2298 3398 1875 3398 
Q 1498 3398 1187 3264 
Q 877 3130 653 2896 
Q 429 2662 307 2342 
Q 186 2022 186 1651 
Q 186 1267 304 947 
Q 422 627 640 396 
Q 858 166 1171 41 
Q 1485 -83 1875 -83 
Q 2438 -83 2835 173 
Q 3232 429 3424 1024 
L 2624 1024 
Q 2579 870 2380 732 
Q 2182 595 1907 595 
Q 1523 595 1318 793 
Q 1114 992 1094 1434 
z
" transform="scale(0.015625)"/>
      <path id="HelveticaNeue-Bold-52" d="M 429 4570 
L 429 0 
L 1338 0 
L 1338 1139 
L 1690 1478 
L 2598 0 
L 3699 0 
L 2310 2093 
L 3558 3309 
L 2483 3309 
L 1338 2118 
L 1338 4570 
L 429 4570 
z
" transform="scale(0.015625)"/>
      <path id="HelveticaNeue-Bold-14" d="M 339 2138 
L 339 1357 
L 2266 1357 
L 2266 2138 
L 339 2138 
z
" transform="scale(0.015625)"/>
      <path id="HelveticaNeue-Bold-18" d="M 2509 0 
L 2509 4480 
L 1786 4480 
Q 1747 4224 1625 4051 
Q 1504 3878 1328 3772 
Q 1152 3667 931 3625 
Q 710 3584 474 3590 
L 474 2906 
L 1600 2906 
L 1600 0 
L 2509 0 
z
" transform="scale(0.015625)"/>
      <path id="HelveticaNeue-Bold-3" transform="scale(0.015625)"/>
      <path id="HelveticaNeue-Bold-59" d="M 346 3309 
L 346 0 
L 1254 0 
L 1254 1491 
Q 1254 1715 1299 1907 
Q 1344 2099 1449 2243 
Q 1555 2387 1728 2470 
Q 1901 2554 2150 2554 
Q 2234 2554 2323 2544 
Q 2413 2534 2477 2522 
L 2477 3366 
Q 2368 3398 2278 3398 
Q 2106 3398 1946 3347 
Q 1786 3296 1645 3203 
Q 1504 3110 1395 2979 
Q 1286 2848 1222 2694 
L 1210 2694 
L 1210 3309 
L 346 3309 
z
" transform="scale(0.015625)"/>
      <path id="HelveticaNeue-Bold-48" d="M 307 2291 
Q 326 2611 467 2822 
Q 608 3034 825 3162 
Q 1043 3290 1315 3344 
Q 1587 3398 1862 3398 
Q 2112 3398 2368 3363 
Q 2624 3328 2835 3225 
Q 3046 3123 3180 2940 
Q 3315 2758 3315 2458 
L 3315 736 
Q 3315 512 3340 307 
Q 3366 102 3430 0 
L 2509 0 
Q 2483 77 2467 157 
Q 2451 237 2445 320 
Q 2227 96 1932 6 
Q 1638 -83 1331 -83 
Q 1094 -83 889 -25 
Q 685 32 531 153 
Q 378 275 291 460 
Q 205 646 205 902 
Q 205 1184 304 1366 
Q 403 1549 560 1657 
Q 717 1766 918 1820 
Q 1120 1875 1325 1907 
Q 1530 1939 1728 1958 
Q 1926 1978 2080 2016 
Q 2234 2054 2323 2128 
Q 2413 2202 2406 2342 
Q 2406 2490 2358 2576 
Q 2310 2662 2230 2710 
Q 2150 2758 2044 2774 
Q 1939 2790 1818 2790 
Q 1549 2790 1395 2675 
Q 1242 2560 1216 2291 
L 307 2291 
z
M 2406 1619 
Q 2349 1568 2262 1539 
Q 2176 1510 2077 1491 
Q 1978 1472 1869 1459 
Q 1760 1446 1651 1427 
Q 1549 1408 1449 1376 
Q 1350 1344 1276 1289 
Q 1203 1235 1158 1152 
Q 1114 1069 1114 941 
Q 1114 819 1158 736 
Q 1203 653 1280 605 
Q 1357 557 1459 537 
Q 1562 518 1670 518 
Q 1939 518 2086 608 
Q 2234 698 2304 822 
Q 2374 947 2390 1075 
Q 2406 1203 2406 1280 
L 2406 1619 
z
" transform="scale(0.015625)"/>
      <path id="HelveticaNeue-Bold-4b" d="M 2694 1664 
Q 2694 1459 2656 1267 
Q 2618 1075 2528 924 
Q 2438 774 2288 684 
Q 2138 595 1914 595 
Q 1702 595 1552 688 
Q 1402 781 1302 931 
Q 1203 1082 1158 1274 
Q 1114 1466 1114 1658 
Q 1114 1862 1155 2051 
Q 1197 2240 1289 2387 
Q 1382 2534 1536 2624 
Q 1690 2714 1914 2714 
Q 2138 2714 2285 2624 
Q 2432 2534 2525 2390 
Q 2618 2246 2656 2057 
Q 2694 1869 2694 1664 
z
M 2707 422 
L 2707 0 
L 3571 0 
L 3571 4570 
L 2662 4570 
L 2662 2906 
L 2650 2906 
Q 2496 3149 2230 3273 
Q 1965 3398 1670 3398 
Q 1306 3398 1030 3254 
Q 755 3110 572 2873 
Q 390 2637 297 2326 
Q 205 2016 205 1683 
Q 205 1338 297 1018 
Q 390 698 572 451 
Q 755 205 1036 61 
Q 1318 -83 1690 -83 
Q 2016 -83 2275 35 
Q 2534 154 2694 422 
L 2707 422 
z
" transform="scale(0.015625)"/>
      <path id="HelveticaNeue-Bold-56" d="M 1152 1651 
Q 1152 1850 1190 2042 
Q 1229 2234 1321 2381 
Q 1414 2528 1568 2621 
Q 1722 2714 1952 2714 
Q 2182 2714 2339 2621 
Q 2496 2528 2589 2381 
Q 2682 2234 2720 2042 
Q 2758 1850 2758 1651 
Q 2758 1453 2720 1264 
Q 2682 1075 2589 924 
Q 2496 774 2339 684 
Q 2182 595 1952 595 
Q 1722 595 1568 684 
Q 1414 774 1321 924 
Q 1229 1075 1190 1264 
Q 1152 1453 1152 1651 
z
M 243 1651 
Q 243 1254 364 934 
Q 486 614 710 387 
Q 934 160 1248 38 
Q 1562 -83 1952 -83 
Q 2342 -83 2659 38 
Q 2976 160 3200 387 
Q 3424 614 3545 934 
Q 3667 1254 3667 1651 
Q 3667 2048 3545 2371 
Q 3424 2694 3200 2921 
Q 2976 3149 2659 3273 
Q 2342 3398 1952 3398 
Q 1562 3398 1248 3273 
Q 934 3149 710 2921 
Q 486 2694 364 2371 
Q 243 2048 243 1651 
z
" transform="scale(0.015625)"/>
      <path id="HelveticaNeue-Bold-5c" d="M 3450 0 
L 3450 3309 
L 2541 3309 
L 2541 1574 
Q 2541 1069 2374 848 
Q 2208 627 1837 627 
Q 1510 627 1382 828 
Q 1254 1030 1254 1440 
L 1254 3309 
L 346 3309 
L 346 1274 
Q 346 966 400 713 
Q 454 461 588 285 
Q 723 109 956 13 
Q 1190 -83 1555 -83 
Q 1843 -83 2118 45 
Q 2394 173 2566 461 
L 2586 461 
L 2586 0 
L 3450 0 
z
" transform="scale(0.015625)"/>
      <path id="HelveticaNeue-Bold-5b" d="M 1498 3309 
L 1498 4301 
L 589 4301 
L 589 3309 
L 38 3309 
L 38 2701 
L 589 2701 
L 589 749 
Q 589 499 672 345 
Q 755 192 899 109 
Q 1043 26 1232 -3 
Q 1421 -32 1632 -32 
Q 1766 -32 1907 -25 
Q 2048 -19 2163 0 
L 2163 704 
Q 2099 691 2028 684 
Q 1958 678 1882 678 
Q 1651 678 1574 755 
Q 1498 832 1498 1062 
L 1498 2701 
L 2163 2701 
L 2163 3309 
L 1498 3309 
z
" transform="scale(0.015625)"/>
      <path id="HelveticaNeue-Bold-21" d="M 1395 2266 
L 1395 3251 
L 390 3251 
L 390 2266 
L 1395 2266 
z
M 390 986 
L 390 0 
L 1395 0 
L 1395 986 
L 390 986 
z
" transform="scale(0.015625)"/>
      <path id="HelveticaNeue-Bold-17" d="M 1043 2259 
Q 1043 2374 1046 2537 
Q 1050 2701 1069 2873 
Q 1088 3046 1133 3216 
Q 1178 3386 1258 3520 
Q 1338 3654 1462 3737 
Q 1587 3821 1773 3821 
Q 1958 3821 2086 3737 
Q 2214 3654 2297 3520 
Q 2381 3386 2422 3216 
Q 2464 3046 2486 2873 
Q 2509 2701 2512 2537 
Q 2515 2374 2515 2259 
Q 2515 2067 2502 1795 
Q 2490 1523 2422 1270 
Q 2355 1018 2204 838 
Q 2054 659 1773 659 
Q 1498 659 1350 838 
Q 1203 1018 1136 1270 
Q 1069 1523 1056 1795 
Q 1043 2067 1043 2259 
z
M 134 2259 
Q 134 1587 265 1136 
Q 397 685 621 416 
Q 845 147 1142 32 
Q 1440 -83 1773 -83 
Q 2112 -83 2409 32 
Q 2707 147 2934 416 
Q 3162 685 3293 1136 
Q 3424 1587 3424 2259 
Q 3424 2912 3293 3357 
Q 3162 3802 2934 4070 
Q 2707 4339 2409 4454 
Q 2112 4570 1773 4570 
Q 1440 4570 1142 4454 
Q 845 4339 621 4070 
Q 397 3802 265 3357 
Q 134 2912 134 2259 
z
" transform="scale(0.015625)"/>
      <path id="HelveticaNeue-Bold-15" d="M 384 986 
L 384 0 
L 1389 0 
L 1389 986 
L 384 986 
z
" transform="scale(0.015625)"/>
      <path id="HelveticaNeue-Bold-1a" d="M 1459 2669 
L 1459 2029 
Q 1626 2029 1808 2019 
Q 1990 2010 2144 1949 
Q 2298 1888 2397 1753 
Q 2496 1619 2496 1363 
Q 2496 1037 2285 848 
Q 2074 659 1766 659 
Q 1568 659 1424 729 
Q 1280 800 1184 918 
Q 1088 1037 1037 1200 
Q 986 1363 979 1542 
L 115 1542 
Q 109 1152 227 851 
Q 346 550 563 342 
Q 781 134 1091 25 
Q 1402 -83 1779 -83 
Q 2106 -83 2406 13 
Q 2707 109 2937 294 
Q 3168 480 3305 755 
Q 3443 1030 3443 1382 
Q 3443 1766 3232 2041 
Q 3021 2317 2650 2400 
L 2650 2413 
Q 2963 2502 3120 2752 
Q 3277 3002 3277 3328 
Q 3277 3629 3142 3859 
Q 3008 4090 2793 4250 
Q 2579 4410 2310 4490 
Q 2042 4570 1773 4570 
Q 1427 4570 1145 4458 
Q 864 4346 662 4141 
Q 461 3936 349 3651 
Q 237 3366 224 3021 
L 1088 3021 
Q 1082 3366 1258 3593 
Q 1434 3821 1779 3821 
Q 2029 3821 2221 3667 
Q 2413 3514 2413 3226 
Q 2413 3034 2320 2918 
Q 2227 2803 2083 2742 
Q 1939 2682 1772 2669 
Q 1606 2656 1459 2669 
z
" transform="scale(0.015625)"/>
      <path id="HelveticaNeue-Bold-19" d="M 237 2758 
L 1107 2758 
Q 1107 2938 1142 3120 
Q 1178 3302 1261 3452 
Q 1344 3603 1481 3696 
Q 1619 3789 1818 3789 
Q 2112 3789 2301 3606 
Q 2490 3424 2490 3098 
Q 2490 2893 2397 2733 
Q 2304 2573 2166 2445 
Q 2029 2317 1862 2211 
Q 1696 2106 1549 2003 
Q 1261 1805 1001 1613 
Q 742 1421 550 1193 
Q 358 966 246 678 
Q 134 390 134 0 
L 3424 0 
L 3424 781 
L 1306 781 
Q 1472 1011 1689 1184 
Q 1907 1357 2137 1507 
Q 2368 1658 2595 1811 
Q 2822 1965 3001 2153 
Q 3181 2342 3289 2585 
Q 3398 2829 3398 3168 
Q 3398 3494 3273 3756 
Q 3149 4019 2937 4198 
Q 2726 4378 2448 4474 
Q 2170 4570 1862 4570 
Q 1459 4570 1148 4432 
Q 838 4294 633 4048 
Q 429 3802 326 3472 
Q 224 3142 237 2758 
z
" transform="scale(0.015625)"/>
     </defs>
     <use xlink:href="#HelveticaNeue-Bold-5e"/>
     <use xlink:href="#HelveticaNeue-Bold-4c" transform="translate(81.40625 0)"/>
     <use xlink:href="#HelveticaNeue-Bold-4c" transform="translate(138.8125 0)"/>
     <use xlink:href="#HelveticaNeue-Bold-52" transform="translate(196.21875 0)"/>
     <use xlink:href="#HelveticaNeue-Bold-14" transform="translate(253.625 0)"/>
     <use xlink:href="#HelveticaNeue-Bold-18" transform="translate(294.328125 0)"/>
     <use xlink:href="#HelveticaNeue-Bold-3" transform="translate(349.921875 0)"/>
     <use xlink:href="#HelveticaNeue-Bold-59" transform="translate(377.71875 0)"/>
     <use xlink:href="#HelveticaNeue-Bold-4c" transform="translate(414.828125 0)"/>
     <use xlink:href="#HelveticaNeue-Bold-48" transform="translate(472.234375 0)"/>
     <use xlink:href="#HelveticaNeue-Bold-4b" transform="translate(529.640625 0)"/>
     <use xlink:href="#HelveticaNeue-Bold-56" transform="translate(590.734375 0)"/>
     <use xlink:href="#HelveticaNeue-Bold-5c" transform="translate(651.828125 0)"/>
     <use xlink:href="#HelveticaNeue-Bold-5b" transform="translate(711.125 0)"/>
     <use xlink:href="#HelveticaNeue-Bold-21" transform="translate(746.328125 0)"/>
     <use xlink:href="#HelveticaNeue-Bold-3" transform="translate(774.125 0)"/>
     <use xlink:href="#HelveticaNeue-Bold-17" transform="translate(801.921875 0)"/>
     <use xlink:href="#HelveticaNeue-Bold-15" transform="translate(857.515625 0)"/>
     <use xlink:href="#HelveticaNeue-Bold-1a" transform="translate(885.3125 0)"/>
     <use xlink:href="#HelveticaNeue-Bold-19" transform="translate(940.90625 0)"/>
    </g>
   </g>
   <g id="text_21">
    <!-- 4-week average: 0.19 -->
    <g style="fill: #1baf7a" transform="translate(382.422822 200.299637) scale(0.09 -0.09)">
     <defs>
      <path id="HelveticaNeue-Bold-1b" d="M 1997 3341 
L 1997 1786 
L 819 1786 
L 1978 3341 
L 1997 3341 
z
M 1997 1037 
L 1997 0 
L 2861 0 
L 2861 1037 
L 3456 1037 
L 3456 1786 
L 2861 1786 
L 2861 4480 
L 2048 4480 
L 102 1869 
L 102 1037 
L 1997 1037 
z
" transform="scale(0.015625)"/>
      <path id="HelveticaNeue-Bold-5d" d="M 2176 0 
L 3296 3309 
L 2394 3309 
L 1696 1050 
L 1683 1050 
L 986 3309 
L 32 3309 
L 1165 0 
L 2176 0 
z
" transform="scale(0.015625)"/>
      <path id="HelveticaNeue-Bold-4e" d="M 1888 781 
Q 1677 781 1536 870 
Q 1395 960 1308 1101 
Q 1222 1242 1187 1418 
Q 1152 1594 1152 1773 
Q 1152 1958 1193 2128 
Q 1235 2298 1328 2429 
Q 1421 2560 1558 2637 
Q 1696 2714 1888 2714 
Q 2112 2714 2259 2630 
Q 2406 2547 2496 2406 
Q 2586 2266 2624 2083 
Q 2662 1901 2662 1696 
Q 2662 1517 2614 1353 
Q 2566 1190 2470 1062 
Q 2374 934 2227 857 
Q 2080 781 1888 781 
z
M 3526 211 
L 3526 3309 
L 2662 3309 
L 2662 2867 
L 2650 2867 
Q 2483 3155 2236 3276 
Q 1990 3398 1664 3398 
Q 1318 3398 1052 3264 
Q 787 3130 608 2902 
Q 429 2675 336 2377 
Q 243 2080 243 1760 
Q 243 1421 323 1117 
Q 403 813 576 585 
Q 749 358 1017 227 
Q 1286 96 1658 96 
Q 1958 96 2230 221 
Q 2502 346 2650 608 
L 2662 608 
L 2662 173 
Q 2669 -179 2493 -409 
Q 2317 -640 1933 -640 
Q 1690 -640 1504 -541 
Q 1318 -442 1254 -186 
L 352 -186 
Q 371 -467 508 -668 
Q 646 -870 854 -998 
Q 1062 -1126 1315 -1187 
Q 1568 -1248 1811 -1248 
Q 2381 -1248 2720 -1094 
Q 3059 -941 3238 -720 
Q 3418 -499 3472 -243 
Q 3526 13 3526 211 
z
" transform="scale(0.015625)"/>
      <path id="HelveticaNeue-Bold-20" d="M 1728 2157 
Q 1555 2157 1424 2230 
Q 1293 2304 1209 2422 
Q 1126 2541 1084 2691 
Q 1043 2842 1043 3002 
Q 1043 3155 1088 3302 
Q 1133 3450 1222 3565 
Q 1312 3680 1440 3750 
Q 1568 3821 1728 3821 
Q 1901 3821 2035 3750 
Q 2170 3680 2262 3561 
Q 2355 3443 2403 3292 
Q 2451 3142 2451 2989 
Q 2451 2822 2406 2672 
Q 2362 2522 2272 2406 
Q 2182 2291 2048 2224 
Q 1914 2157 1728 2157 
z
M 1075 1152 
L 211 1152 
Q 250 858 371 627 
Q 493 397 685 237 
Q 877 77 1126 -3 
Q 1376 -83 1664 -83 
Q 2144 -83 2477 125 
Q 2810 333 3021 669 
Q 3232 1005 3328 1421 
Q 3424 1837 3424 2253 
Q 3424 2675 3347 3091 
Q 3270 3507 3072 3836 
Q 2874 4166 2544 4368 
Q 2214 4570 1702 4570 
Q 1350 4570 1062 4442 
Q 774 4314 566 4093 
Q 358 3872 246 3574 
Q 134 3277 134 2931 
Q 134 2662 217 2400 
Q 301 2138 480 1933 
Q 672 1722 947 1597 
Q 1222 1472 1510 1472 
Q 1837 1472 2086 1587 
Q 2336 1702 2522 1971 
L 2534 1958 
Q 2522 1773 2480 1536 
Q 2438 1299 2342 1091 
Q 2246 883 2086 739 
Q 1926 595 1677 595 
Q 1440 595 1280 761 
Q 1120 928 1075 1152 
z
" transform="scale(0.015625)"/>
     </defs>
     <use xlink:href="#HelveticaNeue-Bold-1b"/>
     <use xlink:href="#HelveticaNeue-Bold-14" transform="translate(55.59375 0)"/>
     <use xlink:href="#HelveticaNeue-Bold-5e" transform="translate(96.296875 0)"/>
     <use xlink:href="#HelveticaNeue-Bold-4c" transform="translate(177.703125 0)"/>
     <use xlink:href="#HelveticaNeue-Bold-4c" transform="translate(235.109375 0)"/>
     <use xlink:href="#HelveticaNeue-Bold-52" transform="translate(292.515625 0)"/>
     <use xlink:href="#HelveticaNeue-Bold-3" transform="translate(349.921875 0)"/>
     <use xlink:href="#HelveticaNeue-Bold-48" transform="translate(377.71875 0)"/>
     <use xlink:href="#HelveticaNeue-Bold-5d" transform="translate(435.125 0)"/>
     <use xlink:href="#HelveticaNeue-Bold-4c" transform="translate(487.125 0)"/>
     <use xlink:href="#HelveticaNeue-Bold-59" transform="translate(544.53125 0)"/>
     <use xlink:href="#HelveticaNeue-Bold-48" transform="translate(583.4375 0)"/>
     <use xlink:href="#HelveticaNeue-Bold-4e" transform="translate(640.84375 0)"/>
     <use xlink:href="#HelveticaNeue-Bold-4c" transform="translate(701.9375 0)"/>
     <use xlink:href="#HelveticaNeue-Bold-21" transform="translate(759.34375 0)"/>
     <use xlink:href="#HelveticaNeue-Bold-3" transform="translate(787.140625 0)"/>
     <use xlink:href="#HelveticaNeue-Bold-17" transform="translate(814.9375 0)"/>
     <use xlink:href="#HelveticaNeue-Bold-15" transform="translate(870.53125 0)"/>
     <use xlink:href="#HelveticaNeue-Bold-18" transform="translate(898.328125 0)"/>
     <use xlink:href="#HelveticaNeue-Bold-20" transform="translate(953.921875 0)"/>
    </g>
   </g>
   <g id="text_22">
    <!-- last-week readout: 0.13 -->
    <g style="fill: #2a78d6" transform="translate(382.422822 231.413964) scale(0.09 -0.09)">
     <defs>
      <path id="HelveticaNeue-Bold-53" d="M 371 4570 
L 371 0 
L 1280 0 
L 1280 4570 
L 371 4570 
z
" transform="scale(0.015625)"/>
      <path id="HelveticaNeue-Bold-5a" d="M 1050 1075 
L 186 1075 
Q 198 742 336 521 
Q 474 301 688 166 
Q 902 32 1177 -25 
Q 1453 -83 1741 -83 
Q 2022 -83 2294 -28 
Q 2566 26 2777 160 
Q 2989 294 3120 515 
Q 3251 736 3251 1062 
Q 3251 1293 3161 1449 
Q 3072 1606 2925 1712 
Q 2778 1818 2589 1882 
Q 2400 1946 2202 1990 
Q 2010 2035 1824 2073 
Q 1638 2112 1494 2160 
Q 1350 2208 1260 2285 
Q 1171 2362 1171 2483 
Q 1171 2586 1222 2646 
Q 1274 2707 1347 2739 
Q 1421 2771 1510 2780 
Q 1600 2790 1677 2790 
Q 1920 2790 2099 2697 
Q 2278 2605 2298 2342 
L 3162 2342 
Q 3136 2650 3005 2851 
Q 2874 3053 2675 3174 
Q 2477 3296 2224 3347 
Q 1971 3398 1702 3398 
Q 1434 3398 1178 3350 
Q 922 3302 717 3184 
Q 512 3066 387 2861 
Q 262 2656 262 2336 
Q 262 2118 352 1968 
Q 442 1818 589 1718 
Q 736 1619 925 1558 
Q 1114 1498 1312 1453 
Q 1798 1350 2070 1248 
Q 2342 1146 2342 941 
Q 2342 819 2284 739 
Q 2227 659 2140 611 
Q 2054 563 1948 540 
Q 1843 518 1747 518 
Q 1613 518 1488 550 
Q 1363 582 1267 649 
Q 1171 717 1110 822 
Q 1050 928 1050 1075 
z
" transform="scale(0.015625)"/>
     </defs>
     <use xlink:href="#HelveticaNeue-Bold-53"/>
     <use xlink:href="#HelveticaNeue-Bold-48" transform="translate(25.796875 0)"/>
     <use xlink:href="#HelveticaNeue-Bold-5a" transform="translate(83.203125 0)"/>
     <use xlink:href="#HelveticaNeue-Bold-5b" transform="translate(136.90625 0)"/>
     <use xlink:href="#HelveticaNeue-Bold-14" transform="translate(172.109375 0)"/>
     <use xlink:href="#HelveticaNeue-Bold-5e" transform="translate(212.8125 0)"/>
     <use xlink:href="#HelveticaNeue-Bold-4c" transform="translate(294.21875 0)"/>
     <use xlink:href="#HelveticaNeue-Bold-4c" transform="translate(351.625 0)"/>
     <use xlink:href="#HelveticaNeue-Bold-52" transform="translate(409.03125 0)"/>
     <use xlink:href="#HelveticaNeue-Bold-3" transform="translate(466.4375 0)"/>
     <use xlink:href="#HelveticaNeue-Bold-59" transform="translate(494.234375 0)"/>
     <use xlink:href="#HelveticaNeue-Bold-4c" transform="translate(531.34375 0)"/>
     <use xlink:href="#HelveticaNeue-Bold-48" transform="translate(588.75 0)"/>
     <use xlink:href="#HelveticaNeue-Bold-4b" transform="translate(646.15625 0)"/>
     <use xlink:href="#HelveticaNeue-Bold-56" transform="translate(707.25 0)"/>
     <use xlink:href="#HelveticaNeue-Bold-5c" transform="translate(768.34375 0)"/>
     <use xlink:href="#HelveticaNeue-Bold-5b" transform="translate(827.640625 0)"/>
     <use xlink:href="#HelveticaNeue-Bold-21" transform="translate(862.84375 0)"/>
     <use xlink:href="#HelveticaNeue-Bold-3" transform="translate(890.640625 0)"/>
     <use xlink:href="#HelveticaNeue-Bold-17" transform="translate(918.4375 0)"/>
     <use xlink:href="#HelveticaNeue-Bold-15" transform="translate(974.03125 0)"/>
     <use xlink:href="#HelveticaNeue-Bold-18" transform="translate(1001.828125 0)"/>
     <use xlink:href="#HelveticaNeue-Bold-1a" transform="translate(1057.421875 0)"/>
    </g>
   </g>
   <g id="text_23">
    <!-- Novelty: the first week is not the launch effect -->
    <g style="fill: #0b0b0b" transform="translate(47.362031 18.9) scale(0.12 -0.12)">
     <defs>
      <path id="HelveticaNeue-Bold-35" d="M 442 4570 
L 442 0 
L 1382 0 
L 1382 3059 
L 1395 3059 
L 3296 0 
L 4301 0 
L 4301 4570 
L 3360 4570 
L 3360 1504 
L 3347 1504 
L 1440 4570 
L 442 4570 
z
" transform="scale(0.015625)"/>
      <path id="HelveticaNeue-Bold-60" d="M 1978 -410 
L 3360 3309 
L 2419 3309 
L 1696 1043 
L 1683 1043 
L 934 3309 
L -32 3309 
L 1126 205 
Q 1165 109 1165 0 
Q 1165 -147 1078 -268 
Q 992 -390 813 -410 
Q 678 -416 544 -403 
Q 410 -390 282 -378 
L 282 -1126 
Q 422 -1139 560 -1148 
Q 698 -1158 838 -1158 
Q 1306 -1158 1568 -985 
Q 1830 -813 1978 -410 
z
" transform="scale(0.015625)"/>
      <path id="HelveticaNeue-Bold-4f" d="M 346 4570 
L 346 0 
L 1254 0 
L 1254 1734 
Q 1254 2240 1420 2461 
Q 1587 2682 1958 2682 
Q 2285 2682 2413 2480 
Q 2541 2278 2541 1869 
L 2541 0 
L 3450 0 
L 3450 2035 
Q 3450 2342 3395 2595 
Q 3341 2848 3206 3024 
Q 3072 3200 2838 3299 
Q 2605 3398 2240 3398 
Q 1984 3398 1715 3267 
Q 1446 3136 1274 2848 
L 1254 2848 
L 1254 4570 
L 346 4570 
z
" transform="scale(0.015625)"/>
      <path id="HelveticaNeue-Bold-c4" d="M 544 2701 
L 544 0 
L 1453 0 
L 1453 2701 
L 2080 2701 
L 2080 3309 
L 1453 3309 
L 1453 3507 
Q 1453 3712 1533 3798 
Q 1613 3885 1798 3885 
Q 1971 3885 2131 3866 
L 2131 4544 
Q 2016 4550 1894 4560 
Q 1773 4570 1651 4570 
Q 1094 4570 819 4288 
Q 544 4006 544 3565 
L 544 3309 
L 0 3309 
L 0 2701 
L 544 2701 
z
M 2630 3309 
L 2630 0 
L 3539 0 
L 3539 3309 
L 2630 3309 
z
M 3539 3821 
L 3539 4570 
L 2630 4570 
L 2630 3821 
L 3539 3821 
z
" transform="scale(0.015625)"/>
      <path id="HelveticaNeue-Bold-50" d="M 1280 3821 
L 1280 4570 
L 371 4570 
L 371 3821 
L 1280 3821 
z
M 371 3309 
L 371 0 
L 1280 0 
L 1280 3309 
L 371 3309 
z
" transform="scale(0.015625)"/>
      <path id="HelveticaNeue-Bold-55" d="M 346 3309 
L 346 0 
L 1254 0 
L 1254 1734 
Q 1254 2240 1420 2461 
Q 1587 2682 1958 2682 
Q 2285 2682 2413 2480 
Q 2541 2278 2541 1869 
L 2541 0 
L 3450 0 
L 3450 2035 
Q 3450 2342 3395 2595 
Q 3341 2848 3206 3024 
Q 3072 3200 2838 3299 
Q 2605 3398 2240 3398 
Q 1952 3398 1677 3267 
Q 1402 3136 1229 2848 
L 1210 2848 
L 1210 3309 
L 346 3309 
z
" transform="scale(0.015625)"/>
      <path id="HelveticaNeue-Bold-4a" d="M 2598 2144 
L 3488 2144 
Q 3469 2464 3334 2697 
Q 3200 2931 2985 3088 
Q 2771 3245 2499 3321 
Q 2227 3398 1933 3398 
Q 1530 3398 1216 3264 
Q 902 3130 684 2890 
Q 467 2650 355 2320 
Q 243 1990 243 1606 
Q 243 1235 364 924 
Q 486 614 704 390 
Q 922 166 1232 41 
Q 1542 -83 1914 -83 
Q 2573 -83 2995 262 
Q 3418 608 3507 1267 
L 2630 1267 
Q 2586 960 2410 777 
Q 2234 595 1907 595 
Q 1696 595 1549 691 
Q 1402 787 1315 937 
Q 1229 1088 1190 1273 
Q 1152 1459 1152 1638 
Q 1152 1824 1190 2013 
Q 1229 2202 1321 2358 
Q 1414 2515 1561 2614 
Q 1709 2714 1926 2714 
Q 2509 2714 2598 2144 
z
" transform="scale(0.015625)"/>
      <path id="HelveticaNeue-Bold-248" d="M 2483 2701 
L 1453 2701 
L 1453 0 
L 544 0 
L 544 2701 
L 0 2701 
L 0 3309 
L 544 3309 
L 544 3565 
Q 544 4006 819 4288 
Q 1094 4570 1651 4570 
Q 1773 4570 1894 4560 
Q 2016 4550 2131 4544 
L 2131 3866 
Q 1965 3885 1798 3885 
Q 1613 3885 1533 3798 
Q 1453 3712 1453 3507 
L 1453 3309 
L 2483 3309 
L 2483 3565 
Q 2483 4006 2758 4288 
Q 3034 4570 3590 4570 
Q 3712 4570 3833 4560 
Q 3955 4550 4070 4544 
L 4070 3866 
Q 3904 3885 3738 3885 
Q 3552 3885 3472 3798 
Q 3392 3712 3392 3507 
L 3392 3309 
L 4019 3309 
L 4019 2701 
L 3392 2701 
L 3392 0 
L 2483 0 
L 2483 2701 
z
" transform="scale(0.015625)"/>
     </defs>
     <use xlink:href="#HelveticaNeue-Bold-35"/>
     <use xlink:href="#HelveticaNeue-Bold-56" transform="translate(74.09375 0)"/>
     <use xlink:href="#HelveticaNeue-Bold-5d" transform="translate(135.1875 0)"/>
     <use xlink:href="#HelveticaNeue-Bold-4c" transform="translate(187.1875 0)"/>
     <use xlink:href="#HelveticaNeue-Bold-53" transform="translate(244.59375 0)"/>
     <use xlink:href="#HelveticaNeue-Bold-5b" transform="translate(270.390625 0)"/>
     <use xlink:href="#HelveticaNeue-Bold-60" transform="translate(305.59375 0)"/>
     <use xlink:href="#HelveticaNeue-Bold-21" transform="translate(357.5 0)"/>
     <use xlink:href="#HelveticaNeue-Bold-3" transform="translate(385.296875 0)"/>
     <use xlink:href="#HelveticaNeue-Bold-5b" transform="translate(413.09375 0)"/>
     <use xlink:href="#HelveticaNeue-Bold-4f" transform="translate(448.296875 0)"/>
     <use xlink:href="#HelveticaNeue-Bold-4c" transform="translate(507.59375 0)"/>
     <use xlink:href="#HelveticaNeue-Bold-3" transform="translate(565 0)"/>
     <use xlink:href="#HelveticaNeue-Bold-c4" transform="translate(592.796875 0)"/>
     <use xlink:href="#HelveticaNeue-Bold-59" transform="translate(653.890625 0)"/>
     <use xlink:href="#HelveticaNeue-Bold-5a" transform="translate(692.796875 0)"/>
     <use xlink:href="#HelveticaNeue-Bold-5b" transform="translate(746.5 0)"/>
     <use xlink:href="#HelveticaNeue-Bold-3" transform="translate(781.703125 0)"/>
     <use xlink:href="#HelveticaNeue-Bold-5e" transform="translate(809.5 0)"/>
     <use xlink:href="#HelveticaNeue-Bold-4c" transform="translate(890.90625 0)"/>
     <use xlink:href="#HelveticaNeue-Bold-4c" transform="translate(948.3125 0)"/>
     <use xlink:href="#HelveticaNeue-Bold-52" transform="translate(1005.71875 0)"/>
     <use xlink:href="#HelveticaNeue-Bold-3" transform="translate(1063.125 0)"/>
     <use xlink:href="#HelveticaNeue-Bold-50" transform="translate(1090.921875 0)"/>
     <use xlink:href="#HelveticaNeue-Bold-5a" transform="translate(1116.71875 0)"/>
     <use xlink:href="#HelveticaNeue-Bold-3" transform="translate(1170.421875 0)"/>
     <use xlink:href="#HelveticaNeue-Bold-55" transform="translate(1198.21875 0)"/>
     <use xlink:href="#HelveticaNeue-Bold-56" transform="translate(1257.515625 0)"/>
     <use xlink:href="#HelveticaNeue-Bold-5b" transform="translate(1318.609375 0)"/>
     <use xlink:href="#HelveticaNeue-Bold-3" transform="translate(1353.8125 0)"/>
     <use xlink:href="#HelveticaNeue-Bold-5b" transform="translate(1381.609375 0)"/>
     <use xlink:href="#HelveticaNeue-Bold-4f" transform="translate(1416.8125 0)"/>
     <use xlink:href="#HelveticaNeue-Bold-4c" transform="translate(1476.109375 0)"/>
     <use xlink:href="#HelveticaNeue-Bold-3" transform="translate(1533.515625 0)"/>
     <use xlink:href="#HelveticaNeue-Bold-53" transform="translate(1561.3125 0)"/>
     <use xlink:href="#HelveticaNeue-Bold-48" transform="translate(1587.109375 0)"/>
     <use xlink:href="#HelveticaNeue-Bold-5c" transform="translate(1644.515625 0)"/>
     <use xlink:href="#HelveticaNeue-Bold-55" transform="translate(1703.8125 0)"/>
     <use xlink:href="#HelveticaNeue-Bold-4a" transform="translate(1763.109375 0)"/>
     <use xlink:href="#HelveticaNeue-Bold-4f" transform="translate(1820.515625 0)"/>
     <use xlink:href="#HelveticaNeue-Bold-3" transform="translate(1879.8125 0)"/>
     <use xlink:href="#HelveticaNeue-Bold-4c" transform="translate(1907.609375 0)"/>
     <use xlink:href="#HelveticaNeue-Bold-248" transform="translate(1965.015625 0)"/>
     <use xlink:href="#HelveticaNeue-Bold-4c" transform="translate(2028.609375 0)"/>
     <use xlink:href="#HelveticaNeue-Bold-4a" transform="translate(2086.015625 0)"/>
     <use xlink:href="#HelveticaNeue-Bold-5b" transform="translate(2143.421875 0)"/>
    </g>
   </g>
  </g>
 </g>
 <defs>
  <clipPath id="p762fdc157f">
   <rect x="47.362031" y="24.9" width="423.757812" height="229.965"/>
  </clipPath>
 </defs>
</svg>
