<?xml version="1.0" encoding="utf-8" standalone="no"?>
<!DOCTYPE svg PUBLIC "-//W3C//DTD SVG 1.1//EN"
  "http://www.w3.org/Graphics/SVG/1.1/DTD/svg11.dtd">
<svg xmlns:xlink="http://www.w3.org/1999/xlink" width="496.612031pt" height="295.2pt" viewBox="0 0 496.612031 295.2" xmlns="http://www.w3.org/2000/svg" version="1.1">
 <metadata>
  <rdf:RDF xmlns:dc="http://purl.org/dc/elements/1.1/" xmlns:cc="http://creativecommons.org/ns#" xmlns:rdf="http://www.w3.org/1999/02/22-rdf-syntax-ns#">
   <cc:Work>
    <dc:type rdf:resource="http://purl.org/dc/dcmitype/StillImage"/>
    <dc:date>2026-07-12T10:55:11.954698</dc:date>
    <dc:format>image/svg+xml</dc:format>
    <dc:creator>
     <cc:Agent>
      <dc:title>Matplotlib v3.11.0, https://matplotlib.org/</dc:title>
     </cc:Agent>
    </dc:creator>
   </cc:Work>
  </rdf:RDF>
 </metadata>
 <defs>
  <style type="text/css">*{stroke-linejoin: round; stroke-linecap: butt}</style>
 </defs>
 <g id="figure_1">
  <g id="patch_1">
   <path d="M 0 295.2 
L 496.612031 295.2 
L 496.612031 0 
L 0 0 
z
" style="fill: #fcfcfb"/>
  </g>
  <g id="axes_1">
   <g id="patch_2">
    <path d="M 47.362031 270.515 
L 489.412031 270.515 
L 489.412031 24.9 
L 47.362031 24.9 
z
" style="fill: #fcfcfb"/>
   </g>
   <g id="matplotlib.axis_1">
    <g id="xtick_1">
     <g id="line2d_1">
      <path d="M 129.813364 270.515 
L 129.813364 24.9 
" clip-path="url(#pd7bb6f7751)" style="fill: none; stroke: #e1e0d9; stroke-width: 0.8; stroke-linecap: square"/>
     </g>
     <g id="line2d_2">
      <defs>
       <path id="m7674cba9ba" d="M 0 0 
L 0 3.5 
" style="stroke: #898781; stroke-width: 0.8"/>
      </defs>
      <g>
       <use xlink:href="#m7674cba9ba" x="129.813364" y="270.515" style="fill: #898781; stroke: #898781; stroke-width: 0.8"/>
      </g>
     </g>
     <g id="text_1">
      <!-- compare adopters vs non-adopters -->
      <g style="fill: #898781" transform="translate(58.627582 286.083) scale(0.09 -0.09)">
       <defs>
        <path id="HelveticaNeue-4a" d="M 2656 2246 
L 3219 2246 
Q 3187 2541 3065 2755 
Q 2944 2970 2755 3110 
Q 2566 3251 2320 3318 
Q 2074 3386 1792 3386 
Q 1402 3386 1107 3248 
Q 813 3110 617 2870 
Q 422 2630 326 2307 
Q 230 1984 230 1613 
Q 230 1242 329 931 
Q 429 621 624 397 
Q 819 173 1110 51 
Q 1402 -70 1779 -70 
Q 2413 -70 2781 262 
Q 3149 595 3238 1210 
L 2682 1210 
Q 2630 826 2403 614 
Q 2176 403 1773 403 
Q 1517 403 1331 505 
Q 1146 608 1030 777 
Q 915 947 860 1164 
Q 806 1382 806 1613 
Q 806 1862 857 2096 
Q 909 2330 1027 2509 
Q 1146 2688 1344 2797 
Q 1542 2906 1837 2906 
Q 2182 2906 2387 2733 
Q 2592 2560 2656 2246 
z
" transform="scale(0.015625)"/>
        <path id="HelveticaNeue-56" d="M 806 1651 
Q 806 1952 886 2185 
Q 966 2419 1107 2579 
Q 1248 2739 1437 2822 
Q 1626 2906 1837 2906 
Q 2048 2906 2237 2822 
Q 2426 2739 2566 2579 
Q 2707 2419 2787 2185 
Q 2867 1952 2867 1651 
Q 2867 1350 2787 1116 
Q 2707 883 2566 726 
Q 2426 570 2237 486 
Q 2048 403 1837 403 
Q 1626 403 1437 486 
Q 1248 570 1107 726 
Q 966 883 886 1116 
Q 806 1350 806 1651 
z
M 230 1651 
Q 230 1286 332 972 
Q 435 659 640 425 
Q 845 192 1145 61 
Q 1446 -70 1837 -70 
Q 2234 -70 2531 61 
Q 2829 192 3033 425 
Q 3238 659 3340 972 
Q 3443 1286 3443 1651 
Q 3443 2016 3340 2333 
Q 3238 2650 3033 2883 
Q 2829 3117 2531 3251 
Q 2234 3386 1837 3386 
Q 1446 3386 1145 3251 
Q 845 3117 640 2883 
Q 435 2650 332 2333 
Q 230 2016 230 1651 
z
" transform="scale(0.015625)"/>
        <path id="HelveticaNeue-54" d="M 410 3309 
L 410 0 
L 954 0 
L 954 2061 
Q 954 2157 1002 2301 
Q 1050 2445 1155 2579 
Q 1261 2714 1430 2810 
Q 1600 2906 1837 2906 
Q 2022 2906 2140 2851 
Q 2259 2797 2329 2697 
Q 2400 2598 2429 2464 
Q 2458 2330 2458 2170 
L 2458 0 
L 3002 0 
L 3002 2061 
Q 3002 2445 3232 2675 
Q 3462 2906 3866 2906 
Q 4064 2906 4189 2848 
Q 4314 2790 4384 2691 
Q 4454 2592 4480 2457 
Q 4506 2323 4506 2170 
L 4506 0 
L 5050 0 
L 5050 2426 
Q 5050 2682 4970 2864 
Q 4890 3046 4746 3161 
Q 4602 3277 4400 3331 
Q 4198 3386 3949 3386 
Q 3622 3386 3350 3238 
Q 3078 3091 2912 2822 
Q 2810 3130 2560 3258 
Q 2310 3386 2003 3386 
Q 1306 3386 934 2822 
L 922 2822 
L 922 3309 
L 410 3309 
z
" transform="scale(0.015625)"/>
        <path id="HelveticaNeue-57" d="M 429 3309 
L 429 -1261 
L 973 -1261 
L 973 442 
L 986 442 
Q 1075 294 1206 195 
Q 1338 96 1485 38 
Q 1632 -19 1782 -44 
Q 1933 -70 2054 -70 
Q 2432 -70 2717 64 
Q 3002 198 3190 432 
Q 3379 666 3472 979 
Q 3565 1293 3565 1645 
Q 3565 1997 3469 2310 
Q 3373 2624 3184 2864 
Q 2995 3104 2710 3245 
Q 2426 3386 2042 3386 
Q 1696 3386 1408 3261 
Q 1120 3136 986 2861 
L 973 2861 
L 973 3309 
L 429 3309 
z
M 2989 1683 
Q 2989 1440 2937 1209 
Q 2886 979 2771 800 
Q 2656 621 2467 512 
Q 2278 403 1997 403 
Q 1715 403 1516 508 
Q 1318 614 1193 787 
Q 1069 960 1011 1187 
Q 954 1414 954 1658 
Q 954 1888 1008 2112 
Q 1062 2336 1184 2512 
Q 1306 2688 1498 2797 
Q 1690 2906 1965 2906 
Q 2227 2906 2422 2803 
Q 2618 2701 2742 2528 
Q 2867 2355 2928 2134 
Q 2989 1914 2989 1683 
z
" transform="scale(0.015625)"/>
        <path id="HelveticaNeue-48" d="M 3341 13 
Q 3200 -70 2950 -70 
Q 2739 -70 2614 48 
Q 2490 166 2490 435 
Q 2266 166 1968 48 
Q 1670 -70 1325 -70 
Q 1101 -70 899 -19 
Q 698 32 550 141 
Q 403 250 316 426 
Q 230 602 230 851 
Q 230 1133 326 1312 
Q 422 1491 579 1603 
Q 736 1715 937 1772 
Q 1139 1830 1350 1869 
Q 1574 1914 1776 1936 
Q 1978 1958 2131 2000 
Q 2285 2042 2374 2122 
Q 2464 2202 2464 2355 
Q 2464 2534 2397 2643 
Q 2330 2752 2224 2809 
Q 2118 2867 1987 2886 
Q 1856 2906 1728 2906 
Q 1382 2906 1152 2774 
Q 922 2643 902 2278 
L 358 2278 
Q 371 2586 486 2797 
Q 602 3008 794 3139 
Q 986 3270 1232 3328 
Q 1478 3386 1760 3386 
Q 1984 3386 2205 3354 
Q 2426 3322 2605 3222 
Q 2784 3123 2893 2944 
Q 3002 2765 3002 2477 
L 3002 774 
Q 3002 582 3024 492 
Q 3046 403 3174 403 
Q 3245 403 3341 435 
L 3341 13 
z
M 2458 1709 
Q 2355 1632 2188 1597 
Q 2022 1562 1840 1539 
Q 1658 1517 1472 1488 
Q 1286 1459 1139 1395 
Q 992 1331 899 1212 
Q 806 1094 806 890 
Q 806 755 860 662 
Q 915 570 1001 512 
Q 1088 454 1203 428 
Q 1318 403 1446 403 
Q 1715 403 1907 476 
Q 2099 550 2220 662 
Q 2342 774 2400 905 
Q 2458 1037 2458 1152 
L 2458 1709 
z
" transform="scale(0.015625)"/>
        <path id="HelveticaNeue-59" d="M 390 3309 
L 390 0 
L 934 0 
L 934 1472 
Q 934 1792 998 2038 
Q 1062 2285 1203 2457 
Q 1344 2630 1574 2720 
Q 1805 2810 2131 2810 
L 2131 3386 
Q 1690 3398 1402 3206 
Q 1114 3014 915 2611 
L 902 2611 
L 902 3309 
L 390 3309 
z
" transform="scale(0.015625)"/>
        <path id="HelveticaNeue-4c" d="M 2707 1971 
L 806 1971 
Q 819 2163 889 2332 
Q 960 2502 1081 2630 
Q 1203 2758 1372 2832 
Q 1542 2906 1754 2906 
Q 1958 2906 2128 2832 
Q 2298 2758 2422 2633 
Q 2547 2509 2620 2336 
Q 2694 2163 2707 1971 
z
M 3232 1050 
L 2694 1050 
Q 2624 723 2403 563 
Q 2182 403 1837 403 
Q 1568 403 1369 492 
Q 1171 582 1043 732 
Q 915 883 857 1078 
Q 800 1274 806 1491 
L 3283 1491 
Q 3296 1792 3229 2125 
Q 3162 2458 2986 2739 
Q 2810 3021 2518 3203 
Q 2227 3386 1786 3386 
Q 1446 3386 1161 3258 
Q 877 3130 669 2899 
Q 461 2669 345 2355 
Q 230 2042 230 1664 
Q 243 1286 342 966 
Q 442 646 640 416 
Q 838 186 1129 58 
Q 1421 -70 1818 -70 
Q 2381 -70 2752 211 
Q 3123 493 3232 1050 
z
" transform="scale(0.015625)"/>
        <path id="HelveticaNeue-3" transform="scale(0.015625)"/>
        <path id="HelveticaNeue-4b" d="M 806 1626 
Q 806 1869 857 2099 
Q 909 2330 1024 2509 
Q 1139 2688 1331 2797 
Q 1523 2906 1798 2906 
Q 2080 2906 2278 2800 
Q 2477 2694 2601 2521 
Q 2726 2349 2784 2121 
Q 2842 1894 2842 1651 
Q 2842 1421 2787 1197 
Q 2733 973 2611 797 
Q 2490 621 2298 512 
Q 2106 403 1830 403 
Q 1568 403 1373 505 
Q 1178 608 1053 781 
Q 928 954 867 1174 
Q 806 1395 806 1626 
z
M 3366 0 
L 3366 4570 
L 2822 4570 
L 2822 2867 
L 2810 2867 
Q 2720 3014 2589 3113 
Q 2458 3213 2310 3273 
Q 2163 3334 2016 3360 
Q 1869 3386 1741 3386 
Q 1363 3386 1078 3248 
Q 794 3110 605 2876 
Q 416 2643 323 2329 
Q 230 2016 230 1664 
Q 230 1312 326 998 
Q 422 685 611 448 
Q 800 211 1085 70 
Q 1370 -70 1754 -70 
Q 2099 -70 2387 51 
Q 2675 173 2810 448 
L 2822 448 
L 2822 0 
L 3366 0 
z
" transform="scale(0.015625)"/>
        <path id="HelveticaNeue-5b" d="M 1165 3309 
L 1165 4301 
L 621 4301 
L 621 3309 
L 58 3309 
L 58 2829 
L 621 2829 
L 621 723 
Q 621 493 665 352 
Q 710 211 803 134 
Q 896 58 1046 29 
Q 1197 0 1408 0 
L 1824 0 
L 1824 480 
L 1574 480 
Q 1446 480 1366 489 
Q 1286 499 1241 531 
Q 1197 563 1181 620 
Q 1165 678 1165 774 
L 1165 2829 
L 1824 2829 
L 1824 3309 
L 1165 3309 
z
" transform="scale(0.015625)"/>
        <path id="HelveticaNeue-5a" d="M 742 1043 
L 198 1043 
Q 211 736 326 521 
Q 442 307 634 176 
Q 826 45 1075 -12 
Q 1325 -70 1600 -70 
Q 1850 -70 2102 -22 
Q 2355 26 2556 147 
Q 2758 269 2883 467 
Q 3008 666 3008 966 
Q 3008 1203 2915 1363 
Q 2822 1523 2672 1628 
Q 2522 1734 2326 1798 
Q 2131 1862 1926 1907 
Q 1734 1952 1542 1993 
Q 1350 2035 1196 2096 
Q 1043 2157 944 2249 
Q 845 2342 845 2483 
Q 845 2611 909 2691 
Q 973 2771 1075 2819 
Q 1178 2867 1302 2886 
Q 1427 2906 1549 2906 
Q 1683 2906 1814 2877 
Q 1946 2848 2054 2784 
Q 2163 2720 2233 2614 
Q 2304 2509 2317 2349 
L 2861 2349 
Q 2842 2650 2733 2851 
Q 2624 3053 2441 3171 
Q 2259 3290 2022 3338 
Q 1786 3386 1504 3386 
Q 1286 3386 1065 3331 
Q 845 3277 669 3165 
Q 493 3053 381 2873 
Q 269 2694 269 2445 
Q 269 2125 429 1945 
Q 589 1766 829 1667 
Q 1069 1568 1350 1513 
Q 1632 1459 1872 1392 
Q 2112 1325 2272 1216 
Q 2432 1107 2432 896 
Q 2432 742 2355 643 
Q 2278 544 2160 493 
Q 2042 442 1901 422 
Q 1760 403 1632 403 
Q 1466 403 1309 435 
Q 1152 467 1027 540 
Q 902 614 825 739 
Q 749 864 742 1043 
z
" transform="scale(0.015625)"/>
        <path id="HelveticaNeue-5d" d="M 1901 0 
L 3110 3309 
L 2541 3309 
L 1638 550 
L 1626 550 
L 698 3309 
L 90 3309 
L 1318 0 
L 1901 0 
z
" transform="scale(0.015625)"/>
        <path id="HelveticaNeue-55" d="M 410 3309 
L 410 0 
L 954 0 
L 954 1869 
Q 954 2093 1014 2281 
Q 1075 2470 1196 2611 
Q 1318 2752 1500 2829 
Q 1683 2906 1933 2906 
Q 2246 2906 2425 2726 
Q 2605 2547 2605 2240 
L 2605 0 
L 3149 0 
L 3149 2176 
Q 3149 2445 3094 2665 
Q 3040 2886 2905 3046 
Q 2771 3206 2553 3296 
Q 2336 3386 2010 3386 
Q 1274 3386 934 2784 
L 922 2784 
L 922 3309 
L 410 3309 
z
" transform="scale(0.015625)"/>
        <path id="HelveticaNeue-14" d="M 320 2035 
L 320 1523 
L 2170 1523 
L 2170 2035 
L 320 2035 
z
" transform="scale(0.015625)"/>
       </defs>
       <use xlink:href="#HelveticaNeue-4a"/>
       <use xlink:href="#HelveticaNeue-56" transform="translate(53.703125 0)"/>
       <use xlink:href="#HelveticaNeue-54" transform="translate(111.109375 0)"/>
       <use xlink:href="#HelveticaNeue-57" transform="translate(196.40625 0)"/>
       <use xlink:href="#HelveticaNeue-48" transform="translate(255.703125 0)"/>
       <use xlink:href="#HelveticaNeue-59" transform="translate(309.40625 0)"/>
       <use xlink:href="#HelveticaNeue-4c" transform="translate(340.90625 0)"/>
       <use xlink:href="#HelveticaNeue-3" transform="translate(394.609375 0)"/>
       <use xlink:href="#HelveticaNeue-48" transform="translate(422.40625 0)"/>
       <use xlink:href="#HelveticaNeue-4b" transform="translate(476.109375 0)"/>
       <use xlink:href="#HelveticaNeue-56" transform="translate(535.40625 0)"/>
       <use xlink:href="#HelveticaNeue-57" transform="translate(592.8125 0)"/>
       <use xlink:href="#HelveticaNeue-5b" transform="translate(652.109375 0)"/>
       <use xlink:href="#HelveticaNeue-4c" transform="translate(683.609375 0)"/>
       <use xlink:href="#HelveticaNeue-59" transform="translate(737.3125 0)"/>
       <use xlink:href="#HelveticaNeue-5a" transform="translate(770.609375 0)"/>
       <use xlink:href="#HelveticaNeue-3" transform="translate(820.609375 0)"/>
       <use xlink:href="#HelveticaNeue-5d" transform="translate(848.40625 0)"/>
       <use xlink:href="#HelveticaNeue-5a" transform="translate(898.40625 0)"/>
       <use xlink:href="#HelveticaNeue-3" transform="translate(948.40625 0)"/>
       <use xlink:href="#HelveticaNeue-55" transform="translate(976.203125 0)"/>
       <use xlink:href="#HelveticaNeue-56" transform="translate(1031.796875 0)"/>
       <use xlink:href="#HelveticaNeue-55" transform="translate(1089.203125 0)"/>
       <use xlink:href="#HelveticaNeue-14" transform="translate(1144.796875 0)"/>
       <use xlink:href="#HelveticaNeue-48" transform="translate(1183.703125 0)"/>
       <use xlink:href="#HelveticaNeue-4b" transform="translate(1237.40625 0)"/>
       <use xlink:href="#HelveticaNeue-56" transform="translate(1296.703125 0)"/>
       <use xlink:href="#HelveticaNeue-57" transform="translate(1354.109375 0)"/>
       <use xlink:href="#HelveticaNeue-5b" transform="translate(1413.40625 0)"/>
       <use xlink:href="#HelveticaNeue-4c" transform="translate(1444.90625 0)"/>
       <use xlink:href="#HelveticaNeue-59" transform="translate(1498.609375 0)"/>
       <use xlink:href="#HelveticaNeue-5a" transform="translate(1531.90625 0)"/>
      </g>
     </g>
    </g>
    <g id="xtick_2">
     <g id="line2d_3">
      <path d="M 406.960699 270.515 
L 406.960699 24.9 
" clip-path="url(#pd7bb6f7751)" style="fill: none; stroke: #e1e0d9; stroke-width: 0.8; stroke-linecap: square"/>
     </g>
     <g id="line2d_4">
      <g>
       <use xlink:href="#m7674cba9ba" x="406.960699" y="270.515" style="fill: #898781; stroke: #898781; stroke-width: 0.8"/>
      </g>
     </g>
     <g id="text_2">
      <!-- randomize -->
      <g style="fill: #898781" transform="translate(385.878199 286.083) scale(0.09 -0.09)">
       <defs>
        <path id="HelveticaNeue-50" d="M 986 3904 
L 986 4570 
L 442 4570 
L 442 3904 
L 986 3904 
z
M 442 3309 
L 442 0 
L 986 0 
L 986 3309 
L 442 3309 
z
" transform="scale(0.015625)"/>
        <path id="HelveticaNeue-61" d="M 141 416 
L 141 0 
L 2931 0 
L 2931 480 
L 819 480 
L 2842 2938 
L 2842 3309 
L 269 3309 
L 269 2829 
L 2138 2829 
L 141 416 
z
" transform="scale(0.015625)"/>
       </defs>
       <use xlink:href="#HelveticaNeue-59"/>
       <use xlink:href="#HelveticaNeue-48" transform="translate(33.296875 0)"/>
       <use xlink:href="#HelveticaNeue-55" transform="translate(87 0)"/>
       <use xlink:href="#HelveticaNeue-4b" transform="translate(142.59375 0)"/>
       <use xlink:href="#HelveticaNeue-56" transform="translate(201.890625 0)"/>
       <use xlink:href="#HelveticaNeue-54" transform="translate(259.296875 0)"/>
       <use xlink:href="#HelveticaNeue-50" transform="translate(344.59375 0)"/>
       <use xlink:href="#HelveticaNeue-61" transform="translate(366.796875 0)"/>
       <use xlink:href="#HelveticaNeue-4c" transform="translate(414.796875 0)"/>
      </g>
     </g>
    </g>
   </g>
   <g id="matplotlib.axis_2">
    <g id="ytick_1">
     <g id="line2d_5">
      <path d="M 47.362031 270.515 
L 489.412031 270.515 
" clip-path="url(#pd7bb6f7751)" style="fill: none; stroke: #e1e0d9; stroke-width: 0.8; stroke-linecap: square"/>
     </g>
     <g id="line2d_6">
      <defs>
       <path id="m67a00e8462" d="M 0 0 
L -3.5 0 
" style="stroke: #898781; stroke-width: 0.8"/>
      </defs>
      <g>
       <use xlink:href="#m67a00e8462" x="47.362031" y="270.515" style="fill: #898781; stroke: #898781; stroke-width: 0.8"/>
      </g>
     </g>
     <g id="text_3">
      <!-- 0.00 -->
      <g style="fill: #898781" transform="translate(22.85 274.799) scale(0.09 -0.09)">
       <defs>
        <path id="HelveticaNeue-17" d="M 845 2234 
Q 845 2400 848 2601 
Q 851 2803 880 3004 
Q 909 3206 963 3398 
Q 1018 3590 1123 3734 
Q 1229 3878 1389 3968 
Q 1549 4058 1779 4058 
Q 2010 4058 2170 3968 
Q 2330 3878 2435 3734 
Q 2541 3590 2595 3398 
Q 2650 3206 2678 3004 
Q 2707 2803 2710 2601 
Q 2714 2400 2714 2234 
Q 2714 1978 2698 1661 
Q 2682 1344 2595 1065 
Q 2509 787 2317 595 
Q 2125 403 1779 403 
Q 1434 403 1242 595 
Q 1050 787 963 1065 
Q 877 1344 861 1661 
Q 845 1978 845 2234 
z
M 269 2227 
Q 269 1978 281 1709 
Q 294 1440 345 1184 
Q 397 928 493 701 
Q 589 474 755 301 
Q 922 128 1174 29 
Q 1427 -70 1779 -70 
Q 2138 -70 2387 29 
Q 2637 128 2803 301 
Q 2970 474 3066 701 
Q 3162 928 3213 1184 
Q 3264 1440 3277 1709 
Q 3290 1978 3290 2227 
Q 3290 2477 3277 2745 
Q 3264 3014 3213 3270 
Q 3162 3526 3066 3756 
Q 2970 3987 2803 4160 
Q 2637 4333 2384 4435 
Q 2131 4538 1779 4538 
Q 1427 4538 1174 4435 
Q 922 4333 755 4160 
Q 589 3987 493 3756 
Q 397 3526 345 3270 
Q 294 3014 281 2745 
Q 269 2477 269 2227 
z
" transform="scale(0.015625)"/>
        <path id="HelveticaNeue-15" d="M 531 710 
L 531 0 
L 1242 0 
L 1242 710 
L 531 710 
z
" transform="scale(0.015625)"/>
       </defs>
       <use xlink:href="#HelveticaNeue-17"/>
       <use xlink:href="#HelveticaNeue-15" transform="translate(55.59375 0)"/>
       <use xlink:href="#HelveticaNeue-17" transform="translate(83.390625 0)"/>
       <use xlink:href="#HelveticaNeue-17" transform="translate(138.984375 0)"/>
      </g>
     </g>
    </g>
    <g id="ytick_2">
     <g id="line2d_7">
      <path d="M 47.362031 240.386323 
L 489.412031 240.386323 
" clip-path="url(#pd7bb6f7751)" style="fill: none; stroke: #e1e0d9; stroke-width: 0.8; stroke-linecap: square"/>
     </g>
     <g id="line2d_8">
      <g>
       <use xlink:href="#m67a00e8462" x="47.362031" y="240.386323" style="fill: #898781; stroke: #898781; stroke-width: 0.8"/>
      </g>
     </g>
     <g id="text_4">
      <!-- 0.25 -->
      <g style="fill: #898781" transform="translate(22.85 244.670323) scale(0.09 -0.09)">
       <defs>
        <path id="HelveticaNeue-19" d="M 282 2931 
L 826 2931 
Q 819 3136 867 3337 
Q 915 3539 1024 3699 
Q 1133 3859 1302 3958 
Q 1472 4058 1709 4058 
Q 1888 4058 2048 4000 
Q 2208 3942 2326 3833 
Q 2445 3725 2515 3574 
Q 2586 3424 2586 3238 
Q 2586 3002 2512 2822 
Q 2438 2643 2294 2489 
Q 2150 2336 1932 2185 
Q 1715 2035 1427 1856 
Q 1190 1715 972 1555 
Q 755 1395 582 1184 
Q 410 973 298 688 
Q 186 403 154 0 
L 3117 0 
L 3117 480 
L 787 480 
Q 826 691 950 854 
Q 1075 1018 1251 1158 
Q 1427 1299 1638 1424 
Q 1850 1549 2061 1677 
Q 2272 1811 2470 1958 
Q 2669 2106 2822 2288 
Q 2976 2470 3069 2700 
Q 3162 2931 3162 3232 
Q 3162 3552 3050 3795 
Q 2938 4038 2746 4201 
Q 2554 4365 2294 4451 
Q 2035 4538 1741 4538 
Q 1382 4538 1100 4416 
Q 819 4294 630 4080 
Q 442 3866 352 3571 
Q 262 3277 282 2931 
z
" transform="scale(0.015625)"/>
        <path id="HelveticaNeue-1c" d="M 3008 3981 
L 3008 4461 
L 768 4461 
L 346 2106 
L 813 2080 
Q 973 2272 1181 2390 
Q 1389 2509 1658 2509 
Q 1888 2509 2077 2432 
Q 2266 2355 2400 2217 
Q 2534 2080 2608 1891 
Q 2682 1702 2682 1478 
Q 2682 1210 2605 1008 
Q 2528 806 2397 672 
Q 2266 538 2090 470 
Q 1914 403 1722 403 
Q 1517 403 1347 464 
Q 1178 525 1053 637 
Q 928 749 854 899 
Q 781 1050 768 1222 
L 224 1222 
Q 230 915 345 672 
Q 461 429 659 265 
Q 858 102 1117 16 
Q 1376 -70 1670 -70 
Q 2067 -70 2364 54 
Q 2662 179 2860 390 
Q 3059 602 3158 874 
Q 3258 1146 3258 1434 
Q 3258 1824 3142 2115 
Q 3027 2406 2828 2601 
Q 2630 2797 2361 2893 
Q 2093 2989 1792 2989 
Q 1562 2989 1328 2909 
Q 1094 2829 947 2662 
L 934 2675 
L 1178 3981 
L 3008 3981 
z
" transform="scale(0.015625)"/>
       </defs>
       <use xlink:href="#HelveticaNeue-17"/>
       <use xlink:href="#HelveticaNeue-15" transform="translate(55.59375 0)"/>
       <use xlink:href="#HelveticaNeue-19" transform="translate(83.390625 0)"/>
       <use xlink:href="#HelveticaNeue-1c" transform="translate(138.984375 0)"/>
      </g>
     </g>
    </g>
    <g id="ytick_3">
     <g id="line2d_9">
      <path d="M 47.362031 210.257646 
L 489.412031 210.257646 
" clip-path="url(#pd7bb6f7751)" style="fill: none; stroke: #e1e0d9; stroke-width: 0.8; stroke-linecap: square"/>
     </g>
     <g id="line2d_10">
      <g>
       <use xlink:href="#m67a00e8462" x="47.362031" y="210.257646" style="fill: #898781; stroke: #898781; stroke-width: 0.8"/>
      </g>
     </g>
     <g id="text_5">
      <!-- 0.50 -->
      <g style="fill: #898781" transform="translate(22.85 214.541646) scale(0.09 -0.09)">
       <use xlink:href="#HelveticaNeue-17"/>
       <use xlink:href="#HelveticaNeue-15" transform="translate(55.59375 0)"/>
       <use xlink:href="#HelveticaNeue-1c" transform="translate(83.390625 0)"/>
       <use xlink:href="#HelveticaNeue-17" transform="translate(138.984375 0)"/>
      </g>
     </g>
    </g>
    <g id="ytick_4">
     <g id="line2d_11">
      <path d="M 47.362031 180.128969 
L 489.412031 180.128969 
" clip-path="url(#pd7bb6f7751)" style="fill: none; stroke: #e1e0d9; stroke-width: 0.8; stroke-linecap: square"/>
     </g>
     <g id="line2d_12">
      <g>
       <use xlink:href="#m67a00e8462" x="47.362031" y="180.128969" style="fill: #898781; stroke: #898781; stroke-width: 0.8"/>
      </g>
     </g>
     <g id="text_6">
      <!-- 0.75 -->
      <g style="fill: #898781" transform="translate(22.85 184.412969) scale(0.09 -0.09)">
       <defs>
        <path id="HelveticaNeue-1e" d="M 3258 3994 
L 3258 4461 
L 320 4461 
L 320 3949 
L 2701 3949 
Q 2342 3571 2032 3123 
Q 1722 2675 1485 2172 
Q 1248 1670 1097 1123 
Q 947 576 909 0 
L 1517 0 
Q 1549 531 1696 1094 
Q 1843 1658 2076 2189 
Q 2310 2720 2611 3187 
Q 2912 3654 3258 3994 
z
" transform="scale(0.015625)"/>
       </defs>
       <use xlink:href="#HelveticaNeue-17"/>
       <use xlink:href="#HelveticaNeue-15" transform="translate(55.59375 0)"/>
       <use xlink:href="#HelveticaNeue-1e" transform="translate(83.390625 0)"/>
       <use xlink:href="#HelveticaNeue-1c" transform="translate(138.984375 0)"/>
      </g>
     </g>
    </g>
    <g id="ytick_5">
     <g id="line2d_13">
      <path d="M 47.362031 150.000292 
L 489.412031 150.000292 
" clip-path="url(#pd7bb6f7751)" style="fill: none; stroke: #e1e0d9; stroke-width: 0.8; stroke-linecap: square"/>
     </g>
     <g id="line2d_14">
      <g>
       <use xlink:href="#m67a00e8462" x="47.362031" y="150.000292" style="fill: #898781; stroke: #898781; stroke-width: 0.8"/>
      </g>
     </g>
     <g id="text_7">
      <!-- 1.00 -->
      <g style="fill: #898781" transform="translate(22.85 154.284292) scale(0.09 -0.09)">
       <defs>
        <path id="HelveticaNeue-18" d="M 2278 0 
L 2278 4538 
L 1862 4538 
Q 1818 4282 1696 4115 
Q 1574 3949 1398 3853 
Q 1222 3757 1004 3721 
Q 787 3686 557 3686 
L 557 3251 
L 1734 3251 
L 1734 0 
L 2278 0 
z
" transform="scale(0.015625)"/>
       </defs>
       <use xlink:href="#HelveticaNeue-18"/>
       <use xlink:href="#HelveticaNeue-15" transform="translate(55.59375 0)"/>
       <use xlink:href="#HelveticaNeue-17" transform="translate(83.390625 0)"/>
       <use xlink:href="#HelveticaNeue-17" transform="translate(138.984375 0)"/>
      </g>
     </g>
    </g>
    <g id="ytick_6">
     <g id="line2d_15">
      <path d="M 47.362031 119.871615 
L 489.412031 119.871615 
" clip-path="url(#pd7bb6f7751)" style="fill: none; stroke: #e1e0d9; stroke-width: 0.8; stroke-linecap: square"/>
     </g>
     <g id="line2d_16">
      <g>
       <use xlink:href="#m67a00e8462" x="47.362031" y="119.871615" style="fill: #898781; stroke: #898781; stroke-width: 0.8"/>
      </g>
     </g>
     <g id="text_8">
      <!-- 1.25 -->
      <g style="fill: #898781" transform="translate(22.85 124.155615) scale(0.09 -0.09)">
       <use xlink:href="#HelveticaNeue-18"/>
       <use xlink:href="#HelveticaNeue-15" transform="translate(55.59375 0)"/>
       <use xlink:href="#HelveticaNeue-19" transform="translate(83.390625 0)"/>
       <use xlink:href="#HelveticaNeue-1c" transform="translate(138.984375 0)"/>
      </g>
     </g>
    </g>
    <g id="ytick_7">
     <g id="line2d_17">
      <path d="M 47.362031 89.742938 
L 489.412031 89.742938 
" clip-path="url(#pd7bb6f7751)" style="fill: none; stroke: #e1e0d9; stroke-width: 0.8; stroke-linecap: square"/>
     </g>
     <g id="line2d_18">
      <g>
       <use xlink:href="#m67a00e8462" x="47.362031" y="89.742938" style="fill: #898781; stroke: #898781; stroke-width: 0.8"/>
      </g>
     </g>
     <g id="text_9">
      <!-- 1.50 -->
      <g style="fill: #898781" transform="translate(22.85 94.026938) scale(0.09 -0.09)">
       <use xlink:href="#HelveticaNeue-18"/>
       <use xlink:href="#HelveticaNeue-15" transform="translate(55.59375 0)"/>
       <use xlink:href="#HelveticaNeue-1c" transform="translate(83.390625 0)"/>
       <use xlink:href="#HelveticaNeue-17" transform="translate(138.984375 0)"/>
      </g>
     </g>
    </g>
    <g id="ytick_8">
     <g id="line2d_19">
      <path d="M 47.362031 59.614262 
L 489.412031 59.614262 
" clip-path="url(#pd7bb6f7751)" style="fill: none; stroke: #e1e0d9; stroke-width: 0.8; stroke-linecap: square"/>
     </g>
     <g id="line2d_20">
      <g>
       <use xlink:href="#m67a00e8462" x="47.362031" y="59.614262" style="fill: #898781; stroke: #898781; stroke-width: 0.8"/>
      </g>
     </g>
     <g id="text_10">
      <!-- 1.75 -->
      <g style="fill: #898781" transform="translate(22.85 63.898262) scale(0.09 -0.09)">
       <use xlink:href="#HelveticaNeue-18"/>
       <use xlink:href="#HelveticaNeue-15" transform="translate(55.59375 0)"/>
       <use xlink:href="#HelveticaNeue-1e" transform="translate(83.390625 0)"/>
       <use xlink:href="#HelveticaNeue-1c" transform="translate(138.984375 0)"/>
      </g>
     </g>
    </g>
    <g id="ytick_9">
     <g id="line2d_21">
      <path d="M 47.362031 29.485585 
L 489.412031 29.485585 
" clip-path="url(#pd7bb6f7751)" style="fill: none; stroke: #e1e0d9; stroke-width: 0.8; stroke-linecap: square"/>
     </g>
     <g id="line2d_22">
      <g>
       <use xlink:href="#m67a00e8462" x="47.362031" y="29.485585" style="fill: #898781; stroke: #898781; stroke-width: 0.8"/>
      </g>
     </g>
     <g id="text_11">
      <!-- 2.00 -->
      <g style="fill: #898781" transform="translate(22.85 33.769585) scale(0.09 -0.09)">
       <use xlink:href="#HelveticaNeue-19"/>
       <use xlink:href="#HelveticaNeue-15" transform="translate(55.59375 0)"/>
       <use xlink:href="#HelveticaNeue-17" transform="translate(83.390625 0)"/>
       <use xlink:href="#HelveticaNeue-17" transform="translate(138.984375 0)"/>
      </g>
     </g>
    </g>
    <g id="text_12">
     <!-- estimated effect -->
     <g style="fill: #52514e" transform="translate(16.72 183.658281) rotate(-90) scale(0.1 -0.1)">
      <defs>
       <path id="HelveticaNeue-248" d="M 2432 2829 
L 1178 2829 
L 1178 0 
L 634 0 
L 634 2829 
L 77 2829 
L 77 3309 
L 634 3309 
L 634 3802 
Q 634 4205 867 4413 
Q 1101 4621 1549 4621 
Q 1626 4621 1725 4608 
Q 1824 4595 1901 4570 
L 1901 4096 
Q 1830 4122 1747 4131 
Q 1664 4141 1594 4141 
Q 1395 4141 1286 4064 
Q 1178 3987 1178 3770 
L 1178 3309 
L 2432 3309 
L 2432 3802 
Q 2432 4205 2665 4413 
Q 2899 4621 3347 4621 
Q 3424 4621 3523 4608 
Q 3622 4595 3699 4570 
L 3699 4096 
Q 3629 4122 3545 4131 
Q 3462 4141 3392 4141 
Q 3194 4141 3085 4064 
Q 2976 3987 2976 3770 
L 2976 3309 
L 3616 3309 
L 3616 2829 
L 2976 2829 
L 2976 0 
L 2432 0 
L 2432 2829 
z
" transform="scale(0.015625)"/>
      </defs>
      <use xlink:href="#HelveticaNeue-4c"/>
      <use xlink:href="#HelveticaNeue-5a" transform="translate(53.703125 0)"/>
      <use xlink:href="#HelveticaNeue-5b" transform="translate(103.703125 0)"/>
      <use xlink:href="#HelveticaNeue-50" transform="translate(135.203125 0)"/>
      <use xlink:href="#HelveticaNeue-54" transform="translate(157.40625 0)"/>
      <use xlink:href="#HelveticaNeue-48" transform="translate(242.703125 0)"/>
      <use xlink:href="#HelveticaNeue-5b" transform="translate(296.40625 0)"/>
      <use xlink:href="#HelveticaNeue-4c" transform="translate(327.90625 0)"/>
      <use xlink:href="#HelveticaNeue-4b" transform="translate(381.609375 0)"/>
      <use xlink:href="#HelveticaNeue-3" transform="translate(440.90625 0)"/>
      <use xlink:href="#HelveticaNeue-4c" transform="translate(468.703125 0)"/>
      <use xlink:href="#HelveticaNeue-248" transform="translate(522.40625 0)"/>
      <use xlink:href="#HelveticaNeue-4c" transform="translate(580.109375 0)"/>
      <use xlink:href="#HelveticaNeue-4a" transform="translate(633.8125 0)"/>
      <use xlink:href="#HelveticaNeue-5b" transform="translate(687.515625 0)"/>
     </g>
    </g>
   </g>
   <g id="patch_3">
    <path d="M 67.455213 270.515 
L 192.171514 270.515 
L 192.171514 36.595952 
L 67.455213 36.595952 
z
" clip-path="url(#pd7bb6f7751)" style="fill: #e34948"/>
   </g>
   <g id="patch_4">
    <path d="M 344.602548 270.515 
L 469.318849 270.515 
L 469.318849 213.391029 
L 344.602548 213.391029 
z
" clip-path="url(#pd7bb6f7751)" style="fill: #2a78d6"/>
   </g>
   <g id="line2d_23">
    <path d="M 47.362031 210.257646 
L 489.412031 210.257646 
" clip-path="url(#pd7bb6f7751)" style="fill: none; stroke-dasharray: 5.55,2.4; stroke-dashoffset: 0; stroke: #898781; stroke-width: 1.5"/>
   </g>
   <g id="patch_5">
    <path d="M 47.362031 270.515 
L 47.362031 24.9 
" style="fill: none; stroke: #c3c2b7; stroke-width: 0.8; stroke-linejoin: miter; stroke-linecap: square"/>
   </g>
   <g id="patch_6">
    <path d="M 47.362031 270.515 
L 489.412031 270.515 
" style="fill: none; stroke: #c3c2b7; stroke-width: 0.8; stroke-linejoin: miter; stroke-linecap: square"/>
   </g>
   <g id="text_13">
    <!-- 1.94 -->
    <g style="fill: #52514e" transform="translate(120.084457 32.595952) scale(0.1 -0.1)">
     <defs>
      <path id="HelveticaNeue-Bold-18" d="M 2509 0 
L 2509 4480 
L 1786 4480 
Q 1747 4224 1625 4051 
Q 1504 3878 1328 3772 
Q 1152 3667 931 3625 
Q 710 3584 474 3590 
L 474 2906 
L 1600 2906 
L 1600 0 
L 2509 0 
z
" transform="scale(0.015625)"/>
      <path id="HelveticaNeue-Bold-15" d="M 384 986 
L 384 0 
L 1389 0 
L 1389 986 
L 384 986 
z
" transform="scale(0.015625)"/>
      <path id="HelveticaNeue-Bold-20" d="M 1728 2157 
Q 1555 2157 1424 2230 
Q 1293 2304 1209 2422 
Q 1126 2541 1084 2691 
Q 1043 2842 1043 3002 
Q 1043 3155 1088 3302 
Q 1133 3450 1222 3565 
Q 1312 3680 1440 3750 
Q 1568 3821 1728 3821 
Q 1901 3821 2035 3750 
Q 2170 3680 2262 3561 
Q 2355 3443 2403 3292 
Q 2451 3142 2451 2989 
Q 2451 2822 2406 2672 
Q 2362 2522 2272 2406 
Q 2182 2291 2048 2224 
Q 1914 2157 1728 2157 
z
M 1075 1152 
L 211 1152 
Q 250 858 371 627 
Q 493 397 685 237 
Q 877 77 1126 -3 
Q 1376 -83 1664 -83 
Q 2144 -83 2477 125 
Q 2810 333 3021 669 
Q 3232 1005 3328 1421 
Q 3424 1837 3424 2253 
Q 3424 2675 3347 3091 
Q 3270 3507 3072 3836 
Q 2874 4166 2544 4368 
Q 2214 4570 1702 4570 
Q 1350 4570 1062 4442 
Q 774 4314 566 4093 
Q 358 3872 246 3574 
Q 134 3277 134 2931 
Q 134 2662 217 2400 
Q 301 2138 480 1933 
Q 672 1722 947 1597 
Q 1222 1472 1510 1472 
Q 1837 1472 2086 1587 
Q 2336 1702 2522 1971 
L 2534 1958 
Q 2522 1773 2480 1536 
Q 2438 1299 2342 1091 
Q 2246 883 2086 739 
Q 1926 595 1677 595 
Q 1440 595 1280 761 
Q 1120 928 1075 1152 
z
" transform="scale(0.015625)"/>
      <path id="HelveticaNeue-Bold-1b" d="M 1997 3341 
L 1997 1786 
L 819 1786 
L 1978 3341 
L 1997 3341 
z
M 1997 1037 
L 1997 0 
L 2861 0 
L 2861 1037 
L 3456 1037 
L 3456 1786 
L 2861 1786 
L 2861 4480 
L 2048 4480 
L 102 1869 
L 102 1037 
L 1997 1037 
z
" transform="scale(0.015625)"/>
     </defs>
     <use xlink:href="#HelveticaNeue-Bold-18"/>
     <use xlink:href="#HelveticaNeue-Bold-15" transform="translate(55.59375 0)"/>
     <use xlink:href="#HelveticaNeue-Bold-20" transform="translate(83.390625 0)"/>
     <use xlink:href="#HelveticaNeue-Bold-1b" transform="translate(138.984375 0)"/>
    </g>
   </g>
   <g id="text_14">
    <!-- 0.47 -->
    <g style="fill: #52514e" transform="translate(397.231793 209.391029) scale(0.1 -0.1)">
     <defs>
      <path id="HelveticaNeue-Bold-17" d="M 1043 2259 
Q 1043 2374 1046 2537 
Q 1050 2701 1069 2873 
Q 1088 3046 1133 3216 
Q 1178 3386 1258 3520 
Q 1338 3654 1462 3737 
Q 1587 3821 1773 3821 
Q 1958 3821 2086 3737 
Q 2214 3654 2297 3520 
Q 2381 3386 2422 3216 
Q 2464 3046 2486 2873 
Q 2509 2701 2512 2537 
Q 2515 2374 2515 2259 
Q 2515 2067 2502 1795 
Q 2490 1523 2422 1270 
Q 2355 1018 2204 838 
Q 2054 659 1773 659 
Q 1498 659 1350 838 
Q 1203 1018 1136 1270 
Q 1069 1523 1056 1795 
Q 1043 2067 1043 2259 
z
M 134 2259 
Q 134 1587 265 1136 
Q 397 685 621 416 
Q 845 147 1142 32 
Q 1440 -83 1773 -83 
Q 2112 -83 2409 32 
Q 2707 147 2934 416 
Q 3162 685 3293 1136 
Q 3424 1587 3424 2259 
Q 3424 2912 3293 3357 
Q 3162 3802 2934 4070 
Q 2707 4339 2409 4454 
Q 2112 4570 1773 4570 
Q 1440 4570 1142 4454 
Q 845 4339 621 4070 
Q 397 3802 265 3357 
Q 134 2912 134 2259 
z
" transform="scale(0.015625)"/>
      <path id="HelveticaNeue-Bold-1e" d="M 3309 3699 
L 3309 4480 
L 250 4480 
L 250 3635 
L 2374 3635 
Q 1734 2861 1340 1933 
Q 947 1005 870 0 
L 1843 0 
Q 1850 448 1949 966 
Q 2048 1485 2230 1990 
Q 2413 2496 2685 2944 
Q 2957 3392 3309 3699 
z
" transform="scale(0.015625)"/>
     </defs>
     <use xlink:href="#HelveticaNeue-Bold-17"/>
     <use xlink:href="#HelveticaNeue-Bold-15" transform="translate(55.59375 0)"/>
     <use xlink:href="#HelveticaNeue-Bold-1b" transform="translate(83.390625 0)"/>
     <use xlink:href="#HelveticaNeue-Bold-1e" transform="translate(138.984375 0)"/>
    </g>
   </g>
   <g id="text_15">
    <!-- true effect = 0.50 -->
    <g style="fill: #52514e" transform="translate(49.362031 206.257646) scale(0.09 -0.09)">
     <defs>
      <path id="HelveticaNeue-5c" d="M 3149 0 
L 3149 3309 
L 2605 3309 
L 2605 1440 
Q 2605 1216 2544 1027 
Q 2483 838 2361 697 
Q 2240 557 2057 480 
Q 1875 403 1626 403 
Q 1312 403 1133 582 
Q 954 762 954 1069 
L 954 3309 
L 410 3309 
L 410 1133 
Q 410 864 464 643 
Q 518 422 652 262 
Q 787 102 1004 16 
Q 1222 -70 1549 -70 
Q 1914 -70 2182 74 
Q 2451 218 2624 525 
L 2637 525 
L 2637 0 
L 3149 0 
z
" transform="scale(0.015625)"/>
      <path id="HelveticaNeue-24" d="M 307 1190 
L 307 755 
L 3533 755 
L 3533 1190 
L 307 1190 
z
M 3533 2048 
L 3533 2483 
L 307 2483 
L 307 2048 
L 3533 2048 
z
" transform="scale(0.015625)"/>
     </defs>
     <use xlink:href="#HelveticaNeue-5b"/>
     <use xlink:href="#HelveticaNeue-59" transform="translate(31.5 0)"/>
     <use xlink:href="#HelveticaNeue-5c" transform="translate(64.796875 0)"/>
     <use xlink:href="#HelveticaNeue-4c" transform="translate(120.390625 0)"/>
     <use xlink:href="#HelveticaNeue-3" transform="translate(174.09375 0)"/>
     <use xlink:href="#HelveticaNeue-4c" transform="translate(201.890625 0)"/>
     <use xlink:href="#HelveticaNeue-248" transform="translate(255.59375 0)"/>
     <use xlink:href="#HelveticaNeue-4c" transform="translate(313.296875 0)"/>
     <use xlink:href="#HelveticaNeue-4a" transform="translate(367 0)"/>
     <use xlink:href="#HelveticaNeue-5b" transform="translate(420.703125 0)"/>
     <use xlink:href="#HelveticaNeue-3" transform="translate(452.203125 0)"/>
     <use xlink:href="#HelveticaNeue-24" transform="translate(480 0)"/>
     <use xlink:href="#HelveticaNeue-3" transform="translate(540 0)"/>
     <use xlink:href="#HelveticaNeue-17" transform="translate(567.796875 0)"/>
     <use xlink:href="#HelveticaNeue-15" transform="translate(623.390625 0)"/>
     <use xlink:href="#HelveticaNeue-1c" transform="translate(651.1875 0)"/>
     <use xlink:href="#HelveticaNeue-17" transform="translate(706.78125 0)"/>
    </g>
   </g>
   <g id="text_16">
    <!-- Self-selection is not an experiment -->
    <g style="fill: #0b0b0b" transform="translate(47.362031 18.9) scale(0.12 -0.12)">
     <defs>
      <path id="HelveticaNeue-Bold-3a" d="M 1126 1517 
L 154 1517 
Q 147 1094 307 787 
Q 467 480 739 281 
Q 1011 83 1366 -9 
Q 1722 -102 2099 -102 
Q 2566 -102 2921 6 
Q 3277 115 3517 310 
Q 3757 506 3878 774 
Q 4000 1043 4000 1357 
Q 4000 1741 3837 1987 
Q 3674 2234 3450 2381 
Q 3226 2528 2998 2595 
Q 2771 2662 2643 2688 
Q 2214 2797 1948 2867 
Q 1683 2938 1532 3008 
Q 1382 3078 1331 3161 
Q 1280 3245 1280 3379 
Q 1280 3526 1344 3622 
Q 1408 3718 1507 3782 
Q 1606 3846 1728 3872 
Q 1850 3898 1971 3898 
Q 2157 3898 2313 3866 
Q 2470 3834 2592 3757 
Q 2714 3680 2787 3545 
Q 2861 3411 2874 3206 
L 3846 3206 
Q 3846 3603 3696 3881 
Q 3546 4160 3290 4339 
Q 3034 4518 2704 4598 
Q 2374 4678 2016 4678 
Q 1709 4678 1401 4595 
Q 1094 4512 851 4339 
Q 608 4166 457 3907 
Q 307 3648 307 3296 
Q 307 2982 425 2761 
Q 544 2541 736 2393 
Q 928 2246 1171 2153 
Q 1414 2061 1670 1997 
Q 1920 1926 2163 1868 
Q 2406 1811 2598 1734 
Q 2790 1658 2908 1542 
Q 3027 1427 3027 1242 
Q 3027 1069 2937 957 
Q 2848 845 2713 781 
Q 2579 717 2425 694 
Q 2272 672 2138 672 
Q 1939 672 1753 720 
Q 1568 768 1430 867 
Q 1293 966 1209 1126 
Q 1126 1286 1126 1517 
z
" transform="scale(0.015625)"/>
      <path id="HelveticaNeue-Bold-4c" d="M 2573 2010 
L 1094 2010 
Q 1101 2106 1136 2227 
Q 1171 2349 1257 2457 
Q 1344 2566 1488 2640 
Q 1632 2714 1850 2714 
Q 2182 2714 2345 2534 
Q 2509 2355 2573 2010 
z
M 1094 1434 
L 3482 1434 
Q 3507 1818 3417 2170 
Q 3328 2522 3126 2797 
Q 2925 3072 2611 3235 
Q 2298 3398 1875 3398 
Q 1498 3398 1187 3264 
Q 877 3130 653 2896 
Q 429 2662 307 2342 
Q 186 2022 186 1651 
Q 186 1267 304 947 
Q 422 627 640 396 
Q 858 166 1171 41 
Q 1485 -83 1875 -83 
Q 2438 -83 2835 173 
Q 3232 429 3424 1024 
L 2624 1024 
Q 2579 870 2380 732 
Q 2182 595 1907 595 
Q 1523 595 1318 793 
Q 1114 992 1094 1434 
z
" transform="scale(0.015625)"/>
      <path id="HelveticaNeue-Bold-53" d="M 371 4570 
L 371 0 
L 1280 0 
L 1280 4570 
L 371 4570 
z
" transform="scale(0.015625)"/>
      <path id="HelveticaNeue-Bold-4d" d="M 544 2701 
L 544 0 
L 1453 0 
L 1453 2701 
L 2080 2701 
L 2080 3309 
L 1453 3309 
L 1453 3507 
Q 1453 3712 1533 3798 
Q 1613 3885 1798 3885 
Q 1971 3885 2131 3866 
L 2131 4544 
Q 2016 4550 1894 4560 
Q 1773 4570 1651 4570 
Q 1094 4570 819 4288 
Q 544 4006 544 3565 
L 544 3309 
L 0 3309 
L 0 2701 
L 544 2701 
z
" transform="scale(0.015625)"/>
      <path id="HelveticaNeue-Bold-14" d="M 339 2138 
L 339 1357 
L 2266 1357 
L 2266 2138 
L 339 2138 
z
" transform="scale(0.015625)"/>
      <path id="HelveticaNeue-Bold-5a" d="M 1050 1075 
L 186 1075 
Q 198 742 336 521 
Q 474 301 688 166 
Q 902 32 1177 -25 
Q 1453 -83 1741 -83 
Q 2022 -83 2294 -28 
Q 2566 26 2777 160 
Q 2989 294 3120 515 
Q 3251 736 3251 1062 
Q 3251 1293 3161 1449 
Q 3072 1606 2925 1712 
Q 2778 1818 2589 1882 
Q 2400 1946 2202 1990 
Q 2010 2035 1824 2073 
Q 1638 2112 1494 2160 
Q 1350 2208 1260 2285 
Q 1171 2362 1171 2483 
Q 1171 2586 1222 2646 
Q 1274 2707 1347 2739 
Q 1421 2771 1510 2780 
Q 1600 2790 1677 2790 
Q 1920 2790 2099 2697 
Q 2278 2605 2298 2342 
L 3162 2342 
Q 3136 2650 3005 2851 
Q 2874 3053 2675 3174 
Q 2477 3296 2224 3347 
Q 1971 3398 1702 3398 
Q 1434 3398 1178 3350 
Q 922 3302 717 3184 
Q 512 3066 387 2861 
Q 262 2656 262 2336 
Q 262 2118 352 1968 
Q 442 1818 589 1718 
Q 736 1619 925 1558 
Q 1114 1498 1312 1453 
Q 1798 1350 2070 1248 
Q 2342 1146 2342 941 
Q 2342 819 2284 739 
Q 2227 659 2140 611 
Q 2054 563 1948 540 
Q 1843 518 1747 518 
Q 1613 518 1488 550 
Q 1363 582 1267 649 
Q 1171 717 1110 822 
Q 1050 928 1050 1075 
z
" transform="scale(0.015625)"/>
      <path id="HelveticaNeue-Bold-4a" d="M 2598 2144 
L 3488 2144 
Q 3469 2464 3334 2697 
Q 3200 2931 2985 3088 
Q 2771 3245 2499 3321 
Q 2227 3398 1933 3398 
Q 1530 3398 1216 3264 
Q 902 3130 684 2890 
Q 467 2650 355 2320 
Q 243 1990 243 1606 
Q 243 1235 364 924 
Q 486 614 704 390 
Q 922 166 1232 41 
Q 1542 -83 1914 -83 
Q 2573 -83 2995 262 
Q 3418 608 3507 1267 
L 2630 1267 
Q 2586 960 2410 777 
Q 2234 595 1907 595 
Q 1696 595 1549 691 
Q 1402 787 1315 937 
Q 1229 1088 1190 1273 
Q 1152 1459 1152 1638 
Q 1152 1824 1190 2013 
Q 1229 2202 1321 2358 
Q 1414 2515 1561 2614 
Q 1709 2714 1926 2714 
Q 2509 2714 2598 2144 
z
" transform="scale(0.015625)"/>
      <path id="HelveticaNeue-Bold-5b" d="M 1498 3309 
L 1498 4301 
L 589 4301 
L 589 3309 
L 38 3309 
L 38 2701 
L 589 2701 
L 589 749 
Q 589 499 672 345 
Q 755 192 899 109 
Q 1043 26 1232 -3 
Q 1421 -32 1632 -32 
Q 1766 -32 1907 -25 
Q 2048 -19 2163 0 
L 2163 704 
Q 2099 691 2028 684 
Q 1958 678 1882 678 
Q 1651 678 1574 755 
Q 1498 832 1498 1062 
L 1498 2701 
L 2163 2701 
L 2163 3309 
L 1498 3309 
z
" transform="scale(0.015625)"/>
      <path id="HelveticaNeue-Bold-50" d="M 1280 3821 
L 1280 4570 
L 371 4570 
L 371 3821 
L 1280 3821 
z
M 371 3309 
L 371 0 
L 1280 0 
L 1280 3309 
L 371 3309 
z
" transform="scale(0.015625)"/>
      <path id="HelveticaNeue-Bold-56" d="M 1152 1651 
Q 1152 1850 1190 2042 
Q 1229 2234 1321 2381 
Q 1414 2528 1568 2621 
Q 1722 2714 1952 2714 
Q 2182 2714 2339 2621 
Q 2496 2528 2589 2381 
Q 2682 2234 2720 2042 
Q 2758 1850 2758 1651 
Q 2758 1453 2720 1264 
Q 2682 1075 2589 924 
Q 2496 774 2339 684 
Q 2182 595 1952 595 
Q 1722 595 1568 684 
Q 1414 774 1321 924 
Q 1229 1075 1190 1264 
Q 1152 1453 1152 1651 
z
M 243 1651 
Q 243 1254 364 934 
Q 486 614 710 387 
Q 934 160 1248 38 
Q 1562 -83 1952 -83 
Q 2342 -83 2659 38 
Q 2976 160 3200 387 
Q 3424 614 3545 934 
Q 3667 1254 3667 1651 
Q 3667 2048 3545 2371 
Q 3424 2694 3200 2921 
Q 2976 3149 2659 3273 
Q 2342 3398 1952 3398 
Q 1562 3398 1248 3273 
Q 934 3149 710 2921 
Q 486 2694 364 2371 
Q 243 2048 243 1651 
z
" transform="scale(0.015625)"/>
      <path id="HelveticaNeue-Bold-55" d="M 346 3309 
L 346 0 
L 1254 0 
L 1254 1734 
Q 1254 2240 1420 2461 
Q 1587 2682 1958 2682 
Q 2285 2682 2413 2480 
Q 2541 2278 2541 1869 
L 2541 0 
L 3450 0 
L 3450 2035 
Q 3450 2342 3395 2595 
Q 3341 2848 3206 3024 
Q 3072 3200 2838 3299 
Q 2605 3398 2240 3398 
Q 1952 3398 1677 3267 
Q 1402 3136 1229 2848 
L 1210 2848 
L 1210 3309 
L 346 3309 
z
" transform="scale(0.015625)"/>
      <path id="HelveticaNeue-Bold-3" transform="scale(0.015625)"/>
      <path id="HelveticaNeue-Bold-48" d="M 307 2291 
Q 326 2611 467 2822 
Q 608 3034 825 3162 
Q 1043 3290 1315 3344 
Q 1587 3398 1862 3398 
Q 2112 3398 2368 3363 
Q 2624 3328 2835 3225 
Q 3046 3123 3180 2940 
Q 3315 2758 3315 2458 
L 3315 736 
Q 3315 512 3340 307 
Q 3366 102 3430 0 
L 2509 0 
Q 2483 77 2467 157 
Q 2451 237 2445 320 
Q 2227 96 1932 6 
Q 1638 -83 1331 -83 
Q 1094 -83 889 -25 
Q 685 32 531 153 
Q 378 275 291 460 
Q 205 646 205 902 
Q 205 1184 304 1366 
Q 403 1549 560 1657 
Q 717 1766 918 1820 
Q 1120 1875 1325 1907 
Q 1530 1939 1728 1958 
Q 1926 1978 2080 2016 
Q 2234 2054 2323 2128 
Q 2413 2202 2406 2342 
Q 2406 2490 2358 2576 
Q 2310 2662 2230 2710 
Q 2150 2758 2044 2774 
Q 1939 2790 1818 2790 
Q 1549 2790 1395 2675 
Q 1242 2560 1216 2291 
L 307 2291 
z
M 2406 1619 
Q 2349 1568 2262 1539 
Q 2176 1510 2077 1491 
Q 1978 1472 1869 1459 
Q 1760 1446 1651 1427 
Q 1549 1408 1449 1376 
Q 1350 1344 1276 1289 
Q 1203 1235 1158 1152 
Q 1114 1069 1114 941 
Q 1114 819 1158 736 
Q 1203 653 1280 605 
Q 1357 557 1459 537 
Q 1562 518 1670 518 
Q 1939 518 2086 608 
Q 2234 698 2304 822 
Q 2374 947 2390 1075 
Q 2406 1203 2406 1280 
L 2406 1619 
z
" transform="scale(0.015625)"/>
      <path id="HelveticaNeue-Bold-5f" d="M 1190 1741 
L 0 0 
L 1018 0 
L 1709 1043 
L 2400 0 
L 3437 0 
L 2214 1760 
L 3302 3309 
L 2298 3309 
L 1722 2445 
L 1139 3309 
L 102 3309 
L 1190 1741 
z
" transform="scale(0.015625)"/>
      <path id="HelveticaNeue-Bold-57" d="M 2016 595 
Q 1798 595 1644 684 
Q 1491 774 1398 918 
Q 1306 1062 1264 1254 
Q 1222 1446 1222 1645 
Q 1222 1850 1260 2042 
Q 1299 2234 1392 2381 
Q 1485 2528 1635 2621 
Q 1786 2714 2010 2714 
Q 2227 2714 2377 2621 
Q 2528 2528 2624 2377 
Q 2720 2227 2761 2035 
Q 2803 1843 2803 1645 
Q 2803 1446 2764 1254 
Q 2726 1062 2633 918 
Q 2541 774 2390 684 
Q 2240 595 2016 595 
z
M 346 3309 
L 346 -1158 
L 1254 -1158 
L 1254 410 
L 1267 410 
Q 1434 166 1693 41 
Q 1952 -83 2259 -83 
Q 2624 -83 2896 57 
Q 3168 198 3350 435 
Q 3533 672 3622 979 
Q 3712 1286 3712 1619 
Q 3712 1971 3622 2294 
Q 3533 2618 3347 2861 
Q 3162 3104 2880 3251 
Q 2598 3398 2208 3398 
Q 1901 3398 1645 3276 
Q 1389 3155 1222 2886 
L 1210 2886 
L 1210 3309 
L 346 3309 
z
" transform="scale(0.015625)"/>
      <path id="HelveticaNeue-Bold-59" d="M 346 3309 
L 346 0 
L 1254 0 
L 1254 1491 
Q 1254 1715 1299 1907 
Q 1344 2099 1449 2243 
Q 1555 2387 1728 2470 
Q 1901 2554 2150 2554 
Q 2234 2554 2323 2544 
Q 2413 2534 2477 2522 
L 2477 3366 
Q 2368 3398 2278 3398 
Q 2106 3398 1946 3347 
Q 1786 3296 1645 3203 
Q 1504 3110 1395 2979 
Q 1286 2848 1222 2694 
L 1210 2694 
L 1210 3309 
L 346 3309 
z
" transform="scale(0.015625)"/>
      <path id="HelveticaNeue-Bold-54" d="M 371 3309 
L 371 0 
L 1280 0 
L 1280 1920 
Q 1280 2163 1350 2313 
Q 1421 2464 1520 2544 
Q 1619 2624 1724 2653 
Q 1830 2682 1894 2682 
Q 2112 2682 2224 2608 
Q 2336 2534 2384 2412 
Q 2432 2291 2438 2147 
Q 2445 2003 2445 1856 
L 2445 0 
L 3354 0 
L 3354 1843 
Q 3354 1997 3376 2147 
Q 3398 2298 3465 2416 
Q 3533 2534 3651 2608 
Q 3770 2682 3962 2682 
Q 4154 2682 4266 2618 
Q 4378 2554 4435 2445 
Q 4493 2336 4505 2189 
Q 4518 2042 4518 1875 
L 4518 0 
L 5427 0 
L 5427 2214 
Q 5427 2534 5337 2761 
Q 5248 2989 5088 3129 
Q 4928 3270 4704 3334 
Q 4480 3398 4218 3398 
Q 3872 3398 3619 3232 
Q 3366 3066 3219 2848 
Q 3085 3155 2825 3276 
Q 2566 3398 2253 3398 
Q 1926 3398 1673 3257 
Q 1421 3117 1242 2861 
L 1229 2861 
L 1229 3309 
L 371 3309 
z
" transform="scale(0.015625)"/>
     </defs>
     <use xlink:href="#HelveticaNeue-Bold-3a"/>
     <use xlink:href="#HelveticaNeue-Bold-4c" transform="translate(64.90625 0)"/>
     <use xlink:href="#HelveticaNeue-Bold-53" transform="translate(122.3125 0)"/>
     <use xlink:href="#HelveticaNeue-Bold-4d" transform="translate(148.109375 0)"/>
     <use xlink:href="#HelveticaNeue-Bold-14" transform="translate(181.40625 0)"/>
     <use xlink:href="#HelveticaNeue-Bold-5a" transform="translate(222.109375 0)"/>
     <use xlink:href="#HelveticaNeue-Bold-4c" transform="translate(275.8125 0)"/>
     <use xlink:href="#HelveticaNeue-Bold-53" transform="translate(333.21875 0)"/>
     <use xlink:href="#HelveticaNeue-Bold-4c" transform="translate(359.015625 0)"/>
     <use xlink:href="#HelveticaNeue-Bold-4a" transform="translate(416.421875 0)"/>
     <use xlink:href="#HelveticaNeue-Bold-5b" transform="translate(473.828125 0)"/>
     <use xlink:href="#HelveticaNeue-Bold-50" transform="translate(509.03125 0)"/>
     <use xlink:href="#HelveticaNeue-Bold-56" transform="translate(534.828125 0)"/>
     <use xlink:href="#HelveticaNeue-Bold-55" transform="translate(595.921875 0)"/>
     <use xlink:href="#HelveticaNeue-Bold-3" transform="translate(655.21875 0)"/>
     <use xlink:href="#HelveticaNeue-Bold-50" transform="translate(683.015625 0)"/>
     <use xlink:href="#HelveticaNeue-Bold-5a" transform="translate(708.8125 0)"/>
     <use xlink:href="#HelveticaNeue-Bold-3" transform="translate(762.515625 0)"/>
     <use xlink:href="#HelveticaNeue-Bold-55" transform="translate(790.3125 0)"/>
     <use xlink:href="#HelveticaNeue-Bold-56" transform="translate(849.609375 0)"/>
     <use xlink:href="#HelveticaNeue-Bold-5b" transform="translate(910.703125 0)"/>
     <use xlink:href="#HelveticaNeue-Bold-3" transform="translate(945.90625 0)"/>
     <use xlink:href="#HelveticaNeue-Bold-48" transform="translate(973.703125 0)"/>
     <use xlink:href="#HelveticaNeue-Bold-55" transform="translate(1031.109375 0)"/>
     <use xlink:href="#HelveticaNeue-Bold-3" transform="translate(1090.40625 0)"/>
     <use xlink:href="#HelveticaNeue-Bold-4c" transform="translate(1118.203125 0)"/>
     <use xlink:href="#HelveticaNeue-Bold-5f" transform="translate(1175.609375 0)"/>
     <use xlink:href="#HelveticaNeue-Bold-57" transform="translate(1229.3125 0)"/>
     <use xlink:href="#HelveticaNeue-Bold-4c" transform="translate(1290.40625 0)"/>
     <use xlink:href="#HelveticaNeue-Bold-59" transform="translate(1347.8125 0)"/>
     <use xlink:href="#HelveticaNeue-Bold-50" transform="translate(1386.71875 0)"/>
     <use xlink:href="#HelveticaNeue-Bold-54" transform="translate(1412.515625 0)"/>
     <use xlink:href="#HelveticaNeue-Bold-4c" transform="translate(1503.109375 0)"/>
     <use xlink:href="#HelveticaNeue-Bold-55" transform="translate(1560.515625 0)"/>
     <use xlink:href="#HelveticaNeue-Bold-5b" transform="translate(1619.8125 0)"/>
    </g>
   </g>
  </g>
 </g>
 <defs>
  <clipPath id="pd7bb6f7751">
   <rect x="47.362031" y="24.9" width="442.05" height="245.615"/>
  </clipPath>
 </defs>
</svg>
